<?xml version="1.0" encoding="UTF-8" standalone="no"?>
<!DOCTYPE svg PUBLIC "-//W3C//DTD SVG 1.1//EN"
 "http://www.w3.org/Graphics/SVG/1.1/DTD/svg11.dtd">
<!-- Generated by graphviz version 2.49.1 (20211004.0028)
 -->
<!-- Title: G Pages: 1 -->
<svg width="1172pt" height="712pt"
 viewBox="0.00 0.00 1172.00 712.00" xmlns="http://www.w3.org/2000/svg" xmlns:xlink="http://www.w3.org/1999/xlink">
<g id="graph0" class="graph" transform="scale(1 1) rotate(0) translate(4 708)">
<title>G</title>
<polygon fill="white" stroke="transparent" points="-4,4 -4,-708 1168,-708 1168,4 -4,4"/>
<!-- 0 -->
<g id="node1" class="node">
<title>0</title>
<path fill="#7bccc4" stroke="black" stroke-width="0" d="M733,-704C733,-704 660,-704 660,-704 654,-704 648,-698 648,-692 648,-692 648,-680 648,-680 648,-674 654,-668 660,-668 660,-668 733,-668 733,-668 739,-668 745,-674 745,-680 745,-680 745,-692 745,-692 745,-698 739,-704 733,-704"/>
<text text-anchor="start" x="656" y="-683.3" font-family="Times,serif" font-weight="bold" font-style="italic" font-size="14.00">Normal Clone</text>
</g>
<!-- 6 -->
<g id="node2" class="node">
<title>6</title>
<path fill="#ccebc5" stroke="black" stroke-width="0" d="M599.5,-632C599.5,-632 543.5,-632 543.5,-632 537.5,-632 531.5,-626 531.5,-620 531.5,-620 531.5,-468 531.5,-468 531.5,-462 537.5,-456 543.5,-456 543.5,-456 599.5,-456 599.5,-456 605.5,-456 611.5,-462 611.5,-468 611.5,-468 611.5,-620 611.5,-620 611.5,-626 605.5,-632 599.5,-632"/>
<text text-anchor="start" x="547" y="-617.8" font-family="Times,serif" font-weight="bold" font-style="italic" font-size="14.00">Clone 6:</text>
<text text-anchor="start" x="539.5" y="-603.8" font-family="Times,serif" font-size="14.00">ADAMTS3</text>
<text text-anchor="start" x="556.5" y="-589.8" font-family="Times,serif" font-size="14.00">JPH3</text>
<text text-anchor="start" x="554.5" y="-575.8" font-family="Times,serif" font-size="14.00">INTU</text>
<text text-anchor="start" x="546.5" y="-561.8" font-family="Times,serif" font-size="14.00">PCDH10</text>
<text text-anchor="start" x="554" y="-547.8" font-family="Times,serif" font-size="14.00">CNR1</text>
<text text-anchor="start" x="547.5" y="-533.8" font-family="Times,serif" font-size="14.00">ZC3H13</text>
<text text-anchor="start" x="551" y="-519.8" font-family="Times,serif" font-size="14.00">ITGAL</text>
<text text-anchor="start" x="553" y="-505.8" font-family="Times,serif" font-size="14.00">ANK2</text>
<text text-anchor="start" x="550" y="-491.8" font-family="Times,serif" font-size="14.00">CLUL1</text>
<text text-anchor="start" x="556.5" y="-477.8" font-family="Times,serif" font-size="14.00">KDR</text>
<text text-anchor="start" x="558.5" y="-463.8" font-family="Times,serif" font-size="14.00">DSE</text>
</g>
<!-- 0&#45;&gt;6 -->
<g id="edge2" class="edge">
<title>0&#45;&gt;6</title>
<path fill="none" stroke="black" d="M680.09,-668C670.24,-657.69 657.51,-644.21 646.5,-632 637.26,-621.75 627.53,-610.69 618.26,-600"/>
<polygon fill="black" stroke="black" points="611.6,-592.29 621.54,-596.92 614.87,-596.08 618.14,-599.86 618.14,-599.86 618.14,-599.86 614.87,-596.08 614.74,-602.8 611.6,-592.29 611.6,-592.29"/>
</g>
<!-- 44 -->
<g id="node8" class="node">
<title>44</title>
<path fill="#e0f3db" stroke="black" stroke-width="0" d="M725.5,-611C725.5,-611 667.5,-611 667.5,-611 661.5,-611 655.5,-605 655.5,-599 655.5,-599 655.5,-489 655.5,-489 655.5,-483 661.5,-477 667.5,-477 667.5,-477 725.5,-477 725.5,-477 731.5,-477 737.5,-483 737.5,-489 737.5,-489 737.5,-599 737.5,-599 737.5,-605 731.5,-611 725.5,-611"/>
<text text-anchor="start" x="669" y="-596.8" font-family="Times,serif" font-weight="bold" font-style="italic" font-size="14.00">Clone 44:</text>
<text text-anchor="start" x="675" y="-582.8" font-family="Times,serif" font-size="14.00">ZGRF1</text>
<text text-anchor="start" x="679.5" y="-568.8" font-family="Times,serif" font-size="14.00">PTK7</text>
<text text-anchor="start" x="679.5" y="-554.8" font-family="Times,serif" font-size="14.00">CDT1</text>
<text text-anchor="start" x="663.5" y="-540.8" font-family="Times,serif" font-size="14.00">THUMPD1</text>
<text text-anchor="start" x="669" y="-526.8" font-family="Times,serif" font-size="14.00">GABRR2</text>
<text text-anchor="start" x="678" y="-512.8" font-family="Times,serif" font-size="14.00">DOK4</text>
<text text-anchor="start" x="679" y="-498.8" font-family="Times,serif" font-size="14.00">DRC7</text>
<text text-anchor="start" x="674.5" y="-484.8" font-family="Times,serif" font-size="14.00">BEND4</text>
</g>
<!-- 0&#45;&gt;44 -->
<g id="edge3" class="edge">
<title>0&#45;&gt;44</title>
<path fill="none" stroke="black" d="M696.5,-667.83C696.5,-655.87 696.5,-638.98 696.5,-621.55"/>
<polygon fill="black" stroke="black" points="696.5,-611.26 701,-621.26 696.5,-616.26 696.5,-621.26 696.5,-621.26 696.5,-621.26 696.5,-616.26 692,-621.26 696.5,-611.26 696.5,-611.26"/>
</g>
<!-- 36 -->
<g id="node26" class="node">
<title>36</title>
<path fill="#a8ddb5" stroke="black" stroke-width="0" d="M815,-569C815,-569 768,-569 768,-569 762,-569 756,-563 756,-557 756,-557 756,-531 756,-531 756,-525 762,-519 768,-519 768,-519 815,-519 815,-519 821,-519 827,-525 827,-531 827,-531 827,-557 827,-557 827,-563 821,-569 815,-569"/>
<text text-anchor="start" x="764" y="-554.8" font-family="Times,serif" font-weight="bold" font-style="italic" font-size="14.00">Clone 36:</text>
<text text-anchor="start" x="771.5" y="-540.8" font-family="Times,serif" font-size="14.00">CD109</text>
<text text-anchor="start" x="771" y="-526.8" font-family="Times,serif" font-size="14.00">FABP7</text>
</g>
<!-- 0&#45;&gt;36 -->
<g id="edge1" class="edge">
<title>0&#45;&gt;36</title>
<path fill="none" stroke="black" d="M714.95,-667.94C725.02,-658.04 737.28,-645 746.5,-632 758.26,-615.42 768.85,-595.35 776.8,-578.67"/>
<polygon fill="black" stroke="black" points="781.16,-569.29 781.02,-580.26 779.05,-573.83 776.94,-578.36 776.94,-578.36 776.94,-578.36 779.05,-573.83 772.86,-576.46 781.16,-569.29 781.16,-569.29"/>
</g>
<!-- 62 -->
<g id="node3" class="node">
<title>62</title>
<path fill="#e0f3db" stroke="black" stroke-width="0" d="M453,-420C453,-420 406,-420 406,-420 400,-420 394,-414 394,-408 394,-408 394,-382 394,-382 394,-376 400,-370 406,-370 406,-370 453,-370 453,-370 459,-370 465,-376 465,-382 465,-382 465,-408 465,-408 465,-414 459,-420 453,-420"/>
<text text-anchor="start" x="402" y="-405.8" font-family="Times,serif" font-weight="bold" font-style="italic" font-size="14.00">Clone 62:</text>
<text text-anchor="start" x="409" y="-391.8" font-family="Times,serif" font-size="14.00">GRID2</text>
<text text-anchor="start" x="413" y="-377.8" font-family="Times,serif" font-size="14.00">TEPP</text>
</g>
<!-- 6&#45;&gt;62 -->
<g id="edge5" class="edge">
<title>6&#45;&gt;62</title>
<path fill="none" stroke="black" d="M531.19,-501.27C508.6,-477.88 480.87,-449.18 460.08,-427.66"/>
<polygon fill="black" stroke="black" points="453.04,-420.37 463.22,-424.43 456.51,-423.96 459.99,-427.56 459.99,-427.56 459.99,-427.56 456.51,-423.96 456.75,-430.69 453.04,-420.37 453.04,-420.37"/>
</g>
<!-- 27 -->
<g id="node4" class="node">
<title>27</title>
<path fill="#e0f3db" stroke="black" stroke-width="0" d="M597.5,-413C597.5,-413 545.5,-413 545.5,-413 539.5,-413 533.5,-407 533.5,-401 533.5,-401 533.5,-389 533.5,-389 533.5,-383 539.5,-377 545.5,-377 545.5,-377 597.5,-377 597.5,-377 603.5,-377 609.5,-383 609.5,-389 609.5,-389 609.5,-401 609.5,-401 609.5,-407 603.5,-413 597.5,-413"/>
<text text-anchor="start" x="544" y="-398.8" font-family="Times,serif" font-weight="bold" font-style="italic" font-size="14.00">Clone 27:</text>
<text text-anchor="start" x="541.5" y="-384.8" font-family="Times,serif" font-size="14.00">FAM124A</text>
</g>
<!-- 6&#45;&gt;27 -->
<g id="edge4" class="edge">
<title>6&#45;&gt;27</title>
<path fill="none" stroke="black" d="M571.5,-455.79C571.5,-444.06 571.5,-432.81 571.5,-423.3"/>
<polygon fill="black" stroke="black" points="571.5,-413.01 576,-423.01 571.5,-418.01 571.5,-423.01 571.5,-423.01 571.5,-423.01 571.5,-418.01 567,-423.01 571.5,-413.01 571.5,-413.01"/>
</g>
<!-- 23 -->
<g id="node5" class="node">
<title>23</title>
<path fill="#ccebc5" stroke="black" stroke-width="0" d="M93,-313C93,-313 12,-313 12,-313 6,-313 0,-307 0,-301 0,-301 0,-289 0,-289 0,-283 6,-277 12,-277 12,-277 93,-277 93,-277 99,-277 105,-283 105,-289 105,-289 105,-301 105,-301 105,-307 99,-313 93,-313"/>
<text text-anchor="start" x="25" y="-298.8" font-family="Times,serif" font-weight="bold" font-style="italic" font-size="14.00">Clone 23:</text>
<text text-anchor="start" x="8" y="-284.8" font-family="Times,serif" font-size="14.00">LOC100287036</text>
</g>
<!-- 62&#45;&gt;23 -->
<g id="edge6" class="edge">
<title>62&#45;&gt;23</title>
<path fill="none" stroke="black" d="M393.72,-391.51C333.88,-386.42 210.51,-371.89 113.5,-334 103.37,-330.04 93.07,-324.38 83.89,-318.62"/>
<polygon fill="black" stroke="black" points="75.47,-313.13 86.3,-314.83 79.66,-315.86 83.84,-318.6 83.84,-318.6 83.84,-318.6 79.66,-315.86 81.39,-322.37 75.47,-313.13 75.47,-313.13"/>
</g>
<!-- 21 -->
<g id="node6" class="node">
<title>21</title>
<path fill="#ccebc5" stroke="black" stroke-width="0" d="M182,-313C182,-313 135,-313 135,-313 129,-313 123,-307 123,-301 123,-301 123,-289 123,-289 123,-283 129,-277 135,-277 135,-277 182,-277 182,-277 188,-277 194,-283 194,-289 194,-289 194,-301 194,-301 194,-307 188,-313 182,-313"/>
<text text-anchor="start" x="131" y="-298.8" font-family="Times,serif" font-weight="bold" font-style="italic" font-size="14.00">Clone 21:</text>
<text text-anchor="start" x="141.5" y="-284.8" font-family="Times,serif" font-size="14.00">ROS1</text>
</g>
<!-- 62&#45;&gt;21 -->
<g id="edge7" class="edge">
<title>62&#45;&gt;21</title>
<path fill="none" stroke="black" d="M393.86,-389.66C347.56,-382.92 265.24,-367.09 202.5,-334 195.5,-330.31 188.67,-325.32 182.55,-320.17"/>
<polygon fill="black" stroke="black" points="174.7,-313.15 185.16,-316.46 178.43,-316.48 182.16,-319.82 182.16,-319.82 182.16,-319.82 178.43,-316.48 179.16,-323.17 174.7,-313.15 174.7,-313.15"/>
</g>
<!-- 20 -->
<g id="node7" class="node">
<title>20</title>
<path fill="#ccebc5" stroke="black" stroke-width="0" d="M271,-313C271,-313 224,-313 224,-313 218,-313 212,-307 212,-301 212,-301 212,-289 212,-289 212,-283 218,-277 224,-277 224,-277 271,-277 271,-277 277,-277 283,-283 283,-289 283,-289 283,-301 283,-301 283,-307 277,-313 271,-313"/>
<text text-anchor="start" x="220" y="-298.8" font-family="Times,serif" font-weight="bold" font-style="italic" font-size="14.00">Clone 20:</text>
<text text-anchor="start" x="232" y="-284.8" font-family="Times,serif" font-size="14.00">PHIP</text>
</g>
<!-- 62&#45;&gt;20 -->
<g id="edge8" class="edge">
<title>62&#45;&gt;20</title>
<path fill="none" stroke="black" d="M393.76,-381.61C365.26,-370.97 324.9,-354.18 292.5,-334 285.94,-329.91 279.32,-324.92 273.26,-319.92"/>
<polygon fill="black" stroke="black" points="265.4,-313.18 275.92,-316.27 269.19,-316.43 272.99,-319.69 272.99,-319.69 272.99,-319.69 269.19,-316.43 270.06,-323.1 265.4,-313.18 265.4,-313.18"/>
</g>
<!-- 13 -->
<g id="node19" class="node">
<title>13</title>
<path fill="#e0f3db" stroke="black" stroke-width="0" d="M363.5,-327C363.5,-327 313.5,-327 313.5,-327 307.5,-327 301.5,-321 301.5,-315 301.5,-315 301.5,-275 301.5,-275 301.5,-269 307.5,-263 313.5,-263 313.5,-263 363.5,-263 363.5,-263 369.5,-263 375.5,-269 375.5,-275 375.5,-275 375.5,-315 375.5,-315 375.5,-321 369.5,-327 363.5,-327"/>
<text text-anchor="start" x="311" y="-312.8" font-family="Times,serif" font-weight="bold" font-style="italic" font-size="14.00">Clone 13:</text>
<text text-anchor="start" x="312.5" y="-298.8" font-family="Times,serif" font-size="14.00">LIMCH1</text>
<text text-anchor="start" x="326.5" y="-284.8" font-family="Times,serif" font-size="14.00">KIT</text>
<text text-anchor="start" x="309.5" y="-270.8" font-family="Times,serif" font-size="14.00">CLEC18A</text>
</g>
<!-- 62&#45;&gt;13 -->
<g id="edge11" class="edge">
<title>62&#45;&gt;13</title>
<path fill="none" stroke="black" d="M407.01,-369.78C397.25,-359.27 385.58,-346.7 374.65,-334.93"/>
<polygon fill="black" stroke="black" points="367.61,-327.35 377.71,-331.62 371.01,-331.02 374.42,-334.68 374.42,-334.68 374.42,-334.68 371.01,-331.02 371.12,-337.74 367.61,-327.35 367.61,-327.35"/>
</g>
<!-- 55 -->
<g id="node23" class="node">
<title>55</title>
<path fill="#e0f3db" stroke="black" stroke-width="0" d="M453,-320C453,-320 406,-320 406,-320 400,-320 394,-314 394,-308 394,-308 394,-282 394,-282 394,-276 400,-270 406,-270 406,-270 453,-270 453,-270 459,-270 465,-276 465,-282 465,-282 465,-308 465,-308 465,-314 459,-320 453,-320"/>
<text text-anchor="start" x="402" y="-305.8" font-family="Times,serif" font-weight="bold" font-style="italic" font-size="14.00">Clone 55:</text>
<text text-anchor="start" x="403" y="-291.8" font-family="Times,serif" font-size="14.00">FNDC3A</text>
<text text-anchor="start" x="412" y="-277.8" font-family="Times,serif" font-size="14.00">PKD1</text>
</g>
<!-- 62&#45;&gt;55 -->
<g id="edge10" class="edge">
<title>62&#45;&gt;55</title>
<path fill="none" stroke="black" d="M429.5,-369.78C429.5,-357.88 429.5,-343.34 429.5,-330.32"/>
<polygon fill="black" stroke="black" points="429.5,-320.29 434,-330.29 429.5,-325.29 429.5,-330.29 429.5,-330.29 429.5,-330.29 429.5,-325.29 425,-330.29 429.5,-320.29 429.5,-320.29"/>
</g>
<!-- 15 -->
<g id="node25" class="node">
<title>15</title>
<path fill="#ccebc5" stroke="black" stroke-width="0" d="M557.5,-334C557.5,-334 495.5,-334 495.5,-334 489.5,-334 483.5,-328 483.5,-322 483.5,-322 483.5,-268 483.5,-268 483.5,-262 489.5,-256 495.5,-256 495.5,-256 557.5,-256 557.5,-256 563.5,-256 569.5,-262 569.5,-268 569.5,-268 569.5,-322 569.5,-322 569.5,-328 563.5,-334 557.5,-334"/>
<text text-anchor="start" x="499" y="-319.8" font-family="Times,serif" font-weight="bold" font-style="italic" font-size="14.00">Clone 15:</text>
<text text-anchor="start" x="491.5" y="-305.8" font-family="Times,serif" font-size="14.00">ARHGAP17</text>
<text text-anchor="start" x="499" y="-291.8" font-family="Times,serif" font-size="14.00">SLC5A11</text>
<text text-anchor="start" x="503.5" y="-277.8" font-family="Times,serif" font-size="14.00">PIEZO1</text>
<text text-anchor="start" x="493" y="-263.8" font-family="Times,serif" font-size="14.00">FAM114A1</text>
</g>
<!-- 62&#45;&gt;15 -->
<g id="edge12" class="edge">
<title>62&#45;&gt;15</title>
<path fill="none" stroke="black" d="M453.48,-369.78C462.06,-361.11 472.02,-351.04 481.78,-341.18"/>
<polygon fill="black" stroke="black" points="488.83,-334.06 484.99,-344.33 485.31,-337.61 481.8,-341.17 481.8,-341.17 481.8,-341.17 485.31,-337.61 478.6,-338 488.83,-334.06 488.83,-334.06"/>
</g>
<!-- 35 -->
<g id="node28" class="node">
<title>35</title>
<path fill="#a8ddb5" stroke="black" stroke-width="0" d="M661.5,-327C661.5,-327 599.5,-327 599.5,-327 593.5,-327 587.5,-321 587.5,-315 587.5,-315 587.5,-275 587.5,-275 587.5,-269 593.5,-263 599.5,-263 599.5,-263 661.5,-263 661.5,-263 667.5,-263 673.5,-269 673.5,-275 673.5,-275 673.5,-315 673.5,-315 673.5,-321 667.5,-327 661.5,-327"/>
<text text-anchor="start" x="603" y="-312.8" font-family="Times,serif" font-weight="bold" font-style="italic" font-size="14.00">Clone 35:</text>
<text text-anchor="start" x="595.5" y="-298.8" font-family="Times,serif" font-size="14.00">AC099489.1</text>
<text text-anchor="start" x="613.5" y="-284.8" font-family="Times,serif" font-size="14.00">XPO6</text>
<text text-anchor="start" x="606.5" y="-270.8" font-family="Times,serif" font-size="14.00">LAMA1</text>
</g>
<!-- 62&#45;&gt;35 -->
<g id="edge13" class="edge">
<title>62&#45;&gt;35</title>
<path fill="none" stroke="black" d="M465.25,-382.42C496.16,-371.76 541.57,-354.51 578.5,-334 579.45,-333.47 580.41,-332.93 581.37,-332.37"/>
<polygon fill="black" stroke="black" points="589.97,-327.06 583.82,-336.14 585.72,-329.69 581.46,-332.31 581.46,-332.31 581.46,-332.31 585.72,-329.69 579.1,-328.48 589.97,-327.06 589.97,-327.06"/>
</g>
<!-- 19 -->
<g id="node29" class="node">
<title>19</title>
<path fill="#ccebc5" stroke="black" stroke-width="0" d="M751,-320C751,-320 704,-320 704,-320 698,-320 692,-314 692,-308 692,-308 692,-282 692,-282 692,-276 698,-270 704,-270 704,-270 751,-270 751,-270 757,-270 763,-276 763,-282 763,-282 763,-308 763,-308 763,-314 757,-320 751,-320"/>
<text text-anchor="start" x="700" y="-305.8" font-family="Times,serif" font-weight="bold" font-style="italic" font-size="14.00">Clone 19:</text>
<text text-anchor="start" x="704" y="-291.8" font-family="Times,serif" font-size="14.00">SRRM2</text>
<text text-anchor="start" x="705.5" y="-277.8" font-family="Times,serif" font-size="14.00">UCHL1</text>
</g>
<!-- 62&#45;&gt;19 -->
<g id="edge9" class="edge">
<title>62&#45;&gt;19</title>
<path fill="none" stroke="black" d="M465.09,-384.8C482.9,-380.25 504.82,-374.73 524.5,-370 594.53,-353.18 618.05,-366.14 682.5,-334 686.85,-331.83 691.13,-329.16 695.22,-326.25"/>
<polygon fill="black" stroke="black" points="703.32,-320.01 698.14,-329.68 699.36,-323.06 695.4,-326.11 695.4,-326.11 695.4,-326.11 699.36,-323.06 692.65,-322.55 703.32,-320.01 703.32,-320.01"/>
</g>
<!-- 28 -->
<g id="node9" class="node">
<title>28</title>
<path fill="#ccebc5" stroke="black" stroke-width="0" d="M720,-413C720,-413 673,-413 673,-413 667,-413 661,-407 661,-401 661,-401 661,-389 661,-389 661,-383 667,-377 673,-377 673,-377 720,-377 720,-377 726,-377 732,-383 732,-389 732,-389 732,-401 732,-401 732,-407 726,-413 720,-413"/>
<text text-anchor="start" x="669" y="-398.8" font-family="Times,serif" font-weight="bold" font-style="italic" font-size="14.00">Clone 28:</text>
<text text-anchor="start" x="673.5" y="-384.8" font-family="Times,serif" font-size="14.00">PIEZO1</text>
</g>
<!-- 44&#45;&gt;28 -->
<g id="edge14" class="edge">
<title>44&#45;&gt;28</title>
<path fill="none" stroke="black" d="M696.5,-476.81C696.5,-457.92 696.5,-438.39 696.5,-423.25"/>
<polygon fill="black" stroke="black" points="696.5,-413.09 701,-423.09 696.5,-418.09 696.5,-423.09 696.5,-423.09 696.5,-423.09 696.5,-418.09 692,-423.09 696.5,-413.09 696.5,-413.09"/>
</g>
<!-- 37 -->
<g id="node10" class="node">
<title>37</title>
<path fill="#a8ddb5" stroke="black" stroke-width="0" d="M845.5,-413C845.5,-413 787.5,-413 787.5,-413 781.5,-413 775.5,-407 775.5,-401 775.5,-401 775.5,-389 775.5,-389 775.5,-383 781.5,-377 787.5,-377 787.5,-377 845.5,-377 845.5,-377 851.5,-377 857.5,-383 857.5,-389 857.5,-389 857.5,-401 857.5,-401 857.5,-407 851.5,-413 845.5,-413"/>
<text text-anchor="start" x="789" y="-398.8" font-family="Times,serif" font-weight="bold" font-style="italic" font-size="14.00">Clone 37:</text>
<text text-anchor="start" x="783.5" y="-384.8" font-family="Times,serif" font-size="14.00">SHROOM3</text>
</g>
<!-- 44&#45;&gt;37 -->
<g id="edge15" class="edge">
<title>44&#45;&gt;37</title>
<path fill="none" stroke="black" d="M731.32,-476.78C736.07,-469.52 741.17,-462.44 746.5,-456 757.56,-442.65 771.78,-429.86 784.52,-419.55"/>
<polygon fill="black" stroke="black" points="792.63,-413.14 787.57,-422.87 788.7,-416.24 784.78,-419.34 784.78,-419.34 784.78,-419.34 788.7,-416.24 781.99,-415.81 792.63,-413.14 792.63,-413.14"/>
</g>
<!-- 25 -->
<g id="node11" class="node">
<title>25</title>
<path fill="#e0f3db" stroke="black" stroke-width="0" d="M840,-313C840,-313 793,-313 793,-313 787,-313 781,-307 781,-301 781,-301 781,-289 781,-289 781,-283 787,-277 793,-277 793,-277 840,-277 840,-277 846,-277 852,-283 852,-289 852,-289 852,-301 852,-301 852,-307 846,-313 840,-313"/>
<text text-anchor="start" x="789" y="-298.8" font-family="Times,serif" font-weight="bold" font-style="italic" font-size="14.00">Clone 25:</text>
<text text-anchor="start" x="797.5" y="-284.8" font-family="Times,serif" font-size="14.00">VWA8</text>
</g>
<!-- 37&#45;&gt;25 -->
<g id="edge16" class="edge">
<title>37&#45;&gt;25</title>
<path fill="none" stroke="black" d="M816.5,-376.93C816.5,-362.12 816.5,-340.43 816.5,-323.23"/>
<polygon fill="black" stroke="black" points="816.5,-313.2 821,-323.2 816.5,-318.2 816.5,-323.2 816.5,-323.2 816.5,-323.2 816.5,-318.2 812,-323.2 816.5,-313.2 816.5,-313.2"/>
</g>
<!-- 63 -->
<g id="node12" class="node">
<title>63</title>
<path fill="#a8ddb5" stroke="black" stroke-width="0" d="M929,-313C929,-313 882,-313 882,-313 876,-313 870,-307 870,-301 870,-301 870,-289 870,-289 870,-283 876,-277 882,-277 882,-277 929,-277 929,-277 935,-277 941,-283 941,-289 941,-289 941,-301 941,-301 941,-307 935,-313 929,-313"/>
<text text-anchor="start" x="878" y="-298.8" font-family="Times,serif" font-weight="bold" font-style="italic" font-size="14.00">Clone 63:</text>
<text text-anchor="start" x="888" y="-284.8" font-family="Times,serif" font-size="14.00">PPIL6</text>
</g>
<!-- 37&#45;&gt;63 -->
<g id="edge17" class="edge">
<title>37&#45;&gt;63</title>
<path fill="none" stroke="black" d="M832,-376.93C846.08,-361.43 867.02,-338.37 882.95,-320.83"/>
<polygon fill="black" stroke="black" points="889.88,-313.2 886.48,-323.63 886.51,-316.9 883.15,-320.61 883.15,-320.61 883.15,-320.61 886.51,-316.9 879.82,-317.58 889.88,-313.2 889.88,-313.2"/>
</g>
<!-- 58 -->
<g id="node13" class="node">
<title>58</title>
<path fill="#a8ddb5" stroke="black" stroke-width="0" d="M670.5,-171C670.5,-171 608.5,-171 608.5,-171 602.5,-171 596.5,-165 596.5,-159 596.5,-159 596.5,-147 596.5,-147 596.5,-141 602.5,-135 608.5,-135 608.5,-135 670.5,-135 670.5,-135 676.5,-135 682.5,-141 682.5,-147 682.5,-147 682.5,-159 682.5,-159 682.5,-165 676.5,-171 670.5,-171"/>
<text text-anchor="start" x="612" y="-156.8" font-family="Times,serif" font-weight="bold" font-style="italic" font-size="14.00">Clone 58:</text>
<text text-anchor="start" x="604.5" y="-142.8" font-family="Times,serif" font-size="14.00">ARHGAP24</text>
</g>
<!-- 63&#45;&gt;58 -->
<g id="edge18" class="edge">
<title>63&#45;&gt;58</title>
<path fill="none" stroke="black" d="M887.54,-276.91C879.63,-269.91 869.99,-262.04 860.5,-256 806.25,-221.47 738.41,-191.95 692.3,-173.68"/>
<polygon fill="black" stroke="black" points="682.8,-169.96 693.75,-169.42 687.46,-171.79 692.11,-173.61 692.11,-173.61 692.11,-173.61 687.46,-171.79 690.47,-177.8 682.8,-169.96 682.8,-169.96"/>
</g>
<!-- 65 -->
<g id="node14" class="node">
<title>65</title>
<path fill="#ccebc5" stroke="black" stroke-width="0" d="M929,-171C929,-171 882,-171 882,-171 876,-171 870,-165 870,-159 870,-159 870,-147 870,-147 870,-141 876,-135 882,-135 882,-135 929,-135 929,-135 935,-135 941,-141 941,-147 941,-147 941,-159 941,-159 941,-165 935,-171 929,-171"/>
<text text-anchor="start" x="878" y="-156.8" font-family="Times,serif" font-weight="bold" font-style="italic" font-size="14.00">Clone 65:</text>
<text text-anchor="start" x="882.5" y="-142.8" font-family="Times,serif" font-size="14.00">CEP192</text>
</g>
<!-- 63&#45;&gt;65 -->
<g id="edge19" class="edge">
<title>63&#45;&gt;65</title>
<path fill="none" stroke="black" d="M905.5,-276.83C905.5,-253.01 905.5,-209.66 905.5,-181.35"/>
<polygon fill="black" stroke="black" points="905.5,-171.31 910,-181.31 905.5,-176.31 905.5,-181.31 905.5,-181.31 905.5,-181.31 905.5,-176.31 901,-181.31 905.5,-171.31 905.5,-171.31"/>
</g>
<!-- 50 -->
<g id="node24" class="node">
<title>50</title>
<path fill="#ccebc5" stroke="black" stroke-width="0" d="M1033.5,-220C1033.5,-220 971.5,-220 971.5,-220 965.5,-220 959.5,-214 959.5,-208 959.5,-208 959.5,-98 959.5,-98 959.5,-92 965.5,-86 971.5,-86 971.5,-86 1033.5,-86 1033.5,-86 1039.5,-86 1045.5,-92 1045.5,-98 1045.5,-98 1045.5,-208 1045.5,-208 1045.5,-214 1039.5,-220 1033.5,-220"/>
<text text-anchor="start" x="975" y="-205.8" font-family="Times,serif" font-weight="bold" font-style="italic" font-size="14.00">Clone 50:</text>
<text text-anchor="start" x="986" y="-191.8" font-family="Times,serif" font-size="14.00">BBS2</text>
<text text-anchor="start" x="973.5" y="-177.8" font-family="Times,serif" font-size="14.00">CLEC19A</text>
<text text-anchor="start" x="973.5" y="-163.8" font-family="Times,serif" font-size="14.00">TBC1D24</text>
<text text-anchor="start" x="984" y="-149.8" font-family="Times,serif" font-size="14.00">NOD2</text>
<text text-anchor="start" x="984" y="-135.8" font-family="Times,serif" font-size="14.00">ANK2</text>
<text text-anchor="start" x="982" y="-121.8" font-family="Times,serif" font-size="14.00">EEF2K</text>
<text text-anchor="start" x="967.5" y="-107.8" font-family="Times,serif" font-size="14.00">AC004233.2</text>
<text text-anchor="start" x="977.5" y="-93.8" font-family="Times,serif" font-size="14.00">CX3CL1</text>
</g>
<!-- 63&#45;&gt;50 -->
<g id="edge20" class="edge">
<title>63&#45;&gt;50</title>
<path fill="none" stroke="black" d="M917.39,-276.83C926.65,-263.48 940.15,-244 953.68,-224.46"/>
<polygon fill="black" stroke="black" points="959.47,-216.11 957.47,-226.89 956.62,-220.22 953.77,-224.33 953.77,-224.33 953.77,-224.33 956.62,-220.22 950.07,-221.76 959.47,-216.11 959.47,-216.11"/>
</g>
<!-- 29 -->
<g id="node20" class="node">
<title>29</title>
<path fill="#e0f3db" stroke="black" stroke-width="0" d="M528.5,-43C528.5,-43 472.5,-43 472.5,-43 466.5,-43 460.5,-37 460.5,-31 460.5,-31 460.5,-19 460.5,-19 460.5,-13 466.5,-7 472.5,-7 472.5,-7 528.5,-7 528.5,-7 534.5,-7 540.5,-13 540.5,-19 540.5,-19 540.5,-31 540.5,-31 540.5,-37 534.5,-43 528.5,-43"/>
<text text-anchor="start" x="473" y="-28.8" font-family="Times,serif" font-weight="bold" font-style="italic" font-size="14.00">Clone 29:</text>
<text text-anchor="start" x="468.5" y="-14.8" font-family="Times,serif" font-size="14.00">RPGRIP1L</text>
</g>
<!-- 58&#45;&gt;29 -->
<g id="edge21" class="edge">
<title>58&#45;&gt;29</title>
<path fill="none" stroke="black" d="M620.46,-134.74C596.24,-112.78 554.26,-74.73 526.94,-49.97"/>
<polygon fill="black" stroke="black" points="519.31,-43.05 529.74,-46.43 523.01,-46.41 526.72,-49.76 526.72,-49.76 526.72,-49.76 523.01,-46.41 523.69,-53.1 519.31,-43.05 519.31,-43.05"/>
</g>
<!-- 32 -->
<g id="node21" class="node">
<title>32</title>
<path fill="#ccebc5" stroke="black" stroke-width="0" d="M618,-43C618,-43 571,-43 571,-43 565,-43 559,-37 559,-31 559,-31 559,-19 559,-19 559,-13 565,-7 571,-7 571,-7 618,-7 618,-7 624,-7 630,-13 630,-19 630,-19 630,-31 630,-31 630,-37 624,-43 618,-43"/>
<text text-anchor="start" x="567" y="-28.8" font-family="Times,serif" font-weight="bold" font-style="italic" font-size="14.00">Clone 32:</text>
<text text-anchor="start" x="576.5" y="-14.8" font-family="Times,serif" font-size="14.00">CHD9</text>
</g>
<!-- 58&#45;&gt;32 -->
<g id="edge22" class="edge">
<title>58&#45;&gt;32</title>
<path fill="none" stroke="black" d="M633.34,-134.74C625.76,-113.54 612.83,-77.33 603.99,-52.56"/>
<polygon fill="black" stroke="black" points="600.59,-43.05 608.19,-50.95 602.27,-47.76 603.95,-52.46 603.95,-52.46 603.95,-52.46 602.27,-47.76 599.71,-53.98 600.59,-43.05 600.59,-43.05"/>
</g>
<!-- 30 -->
<g id="node22" class="node">
<title>30</title>
<path fill="#e0f3db" stroke="black" stroke-width="0" d="M707,-43C707,-43 660,-43 660,-43 654,-43 648,-37 648,-31 648,-31 648,-19 648,-19 648,-13 654,-7 660,-7 660,-7 707,-7 707,-7 713,-7 719,-13 719,-19 719,-19 719,-31 719,-31 719,-37 713,-43 707,-43"/>
<text text-anchor="start" x="656" y="-28.8" font-family="Times,serif" font-weight="bold" font-style="italic" font-size="14.00">Clone 30:</text>
<text text-anchor="start" x="666" y="-14.8" font-family="Times,serif" font-size="14.00">UBA6</text>
</g>
<!-- 58&#45;&gt;30 -->
<g id="edge23" class="edge">
<title>58&#45;&gt;30</title>
<path fill="none" stroke="black" d="M645.53,-134.74C652.93,-113.54 665.58,-77.33 674.22,-52.56"/>
<polygon fill="black" stroke="black" points="677.55,-43.05 678.5,-53.97 675.9,-47.77 674.25,-52.49 674.25,-52.49 674.25,-52.49 675.9,-47.77 670,-51 677.55,-43.05 677.55,-43.05"/>
</g>
<!-- 26 -->
<g id="node15" class="node">
<title>26</title>
<path fill="#a8ddb5" stroke="black" stroke-width="0" d="M796,-43C796,-43 749,-43 749,-43 743,-43 737,-37 737,-31 737,-31 737,-19 737,-19 737,-13 743,-7 749,-7 749,-7 796,-7 796,-7 802,-7 808,-13 808,-19 808,-19 808,-31 808,-31 808,-37 802,-43 796,-43"/>
<text text-anchor="start" x="745" y="-28.8" font-family="Times,serif" font-weight="bold" font-style="italic" font-size="14.00">Clone 26:</text>
<text text-anchor="start" x="747.5" y="-14.8" font-family="Times,serif" font-size="14.00">LRRC63</text>
</g>
<!-- 65&#45;&gt;26 -->
<g id="edge24" class="edge">
<title>65&#45;&gt;26</title>
<path fill="none" stroke="black" d="M887.29,-134.74C864.1,-112.78 823.94,-74.73 797.8,-49.97"/>
<polygon fill="black" stroke="black" points="790.49,-43.05 800.85,-46.66 794.12,-46.49 797.75,-49.92 797.75,-49.92 797.75,-49.92 794.12,-46.49 794.66,-53.19 790.49,-43.05 790.49,-43.05"/>
</g>
<!-- 16 -->
<g id="node16" class="node">
<title>16</title>
<path fill="#a8ddb5" stroke="black" stroke-width="0" d="M885,-43C885,-43 838,-43 838,-43 832,-43 826,-37 826,-31 826,-31 826,-19 826,-19 826,-13 832,-7 838,-7 838,-7 885,-7 885,-7 891,-7 897,-13 897,-19 897,-19 897,-31 897,-31 897,-37 891,-43 885,-43"/>
<text text-anchor="start" x="834" y="-28.8" font-family="Times,serif" font-weight="bold" font-style="italic" font-size="14.00">Clone 16:</text>
<text text-anchor="start" x="838.5" y="-14.8" font-family="Times,serif" font-size="14.00">ZNF646</text>
</g>
<!-- 65&#45;&gt;16 -->
<g id="edge25" class="edge">
<title>65&#45;&gt;16</title>
<path fill="none" stroke="black" d="M899.47,-134.74C892.07,-113.54 879.42,-77.33 870.78,-52.56"/>
<polygon fill="black" stroke="black" points="867.45,-43.05 875,-51 869.1,-47.77 870.75,-52.49 870.75,-52.49 870.75,-52.49 869.1,-47.77 866.5,-53.97 867.45,-43.05 867.45,-43.05"/>
</g>
<!-- 24 -->
<g id="node17" class="node">
<title>24</title>
<path fill="#a8ddb5" stroke="black" stroke-width="0" d="M974,-43C974,-43 927,-43 927,-43 921,-43 915,-37 915,-31 915,-31 915,-19 915,-19 915,-13 921,-7 927,-7 927,-7 974,-7 974,-7 980,-7 986,-13 986,-19 986,-19 986,-31 986,-31 986,-37 980,-43 974,-43"/>
<text text-anchor="start" x="923" y="-28.8" font-family="Times,serif" font-weight="bold" font-style="italic" font-size="14.00">Clone 24:</text>
<text text-anchor="start" x="932.5" y="-14.8" font-family="Times,serif" font-size="14.00">BANP</text>
</g>
<!-- 65&#45;&gt;24 -->
<g id="edge26" class="edge">
<title>65&#45;&gt;24</title>
<path fill="none" stroke="black" d="M911.66,-134.74C919.24,-113.54 932.17,-77.33 941.01,-52.56"/>
<polygon fill="black" stroke="black" points="944.41,-43.05 945.29,-53.98 942.73,-47.76 941.05,-52.46 941.05,-52.46 941.05,-52.46 942.73,-47.76 936.81,-50.95 944.41,-43.05 944.41,-43.05"/>
</g>
<!-- 31 -->
<g id="node18" class="node">
<title>31</title>
<path fill="#a8ddb5" stroke="black" stroke-width="0" d="M1063,-50C1063,-50 1016,-50 1016,-50 1010,-50 1004,-44 1004,-38 1004,-38 1004,-12 1004,-12 1004,-6 1010,0 1016,0 1016,0 1063,0 1063,0 1069,0 1075,-6 1075,-12 1075,-12 1075,-38 1075,-38 1075,-44 1069,-50 1063,-50"/>
<text text-anchor="start" x="1012" y="-35.8" font-family="Times,serif" font-weight="bold" font-style="italic" font-size="14.00">Clone 31:</text>
<text text-anchor="start" x="1022.5" y="-21.8" font-family="Times,serif" font-size="14.00">NUS1</text>
<text text-anchor="start" x="1018.5" y="-7.8" font-family="Times,serif" font-size="14.00">ESCO1</text>
</g>
<!-- 65&#45;&gt;31 -->
<g id="edge28" class="edge">
<title>65&#45;&gt;31</title>
<path fill="none" stroke="black" d="M914.67,-134.97C922.84,-120.81 935.75,-100.67 950.5,-86 963.64,-72.93 980.01,-60.95 995.11,-51.2"/>
<polygon fill="black" stroke="black" points="1003.82,-45.72 997.75,-54.85 999.59,-48.38 995.36,-51.05 995.36,-51.05 995.36,-51.05 999.59,-48.38 992.96,-47.24 1003.82,-45.72 1003.82,-45.72"/>
</g>
<!-- 17 -->
<g id="node27" class="node">
<title>17</title>
<path fill="#ccebc5" stroke="black" stroke-width="0" d="M1152,-50C1152,-50 1105,-50 1105,-50 1099,-50 1093,-44 1093,-38 1093,-38 1093,-12 1093,-12 1093,-6 1099,0 1105,0 1105,0 1152,0 1152,0 1158,0 1164,-6 1164,-12 1164,-12 1164,-38 1164,-38 1164,-44 1158,-50 1152,-50"/>
<text text-anchor="start" x="1101" y="-35.8" font-family="Times,serif" font-weight="bold" font-style="italic" font-size="14.00">Clone 17:</text>
<text text-anchor="start" x="1112.5" y="-21.8" font-family="Times,serif" font-size="14.00">MAZ</text>
<text text-anchor="start" x="1105.5" y="-7.8" font-family="Times,serif" font-size="14.00">NPIPB6</text>
</g>
<!-- 65&#45;&gt;17 -->
<g id="edge27" class="edge">
<title>65&#45;&gt;17</title>
<path fill="none" stroke="black" d="M912.95,-134.81C920.34,-119.74 933.09,-98.36 950.5,-86 998.23,-52.11 1024.5,-70.78 1083.12,-50.04"/>
<polygon fill="black" stroke="black" points="1092.82,-46.36 1085.07,-54.12 1088.14,-48.14 1083.47,-49.91 1083.47,-49.91 1083.47,-49.91 1088.14,-48.14 1081.87,-45.7 1092.82,-46.36 1092.82,-46.36"/>
</g>
</g>
</svg>
