<?xml version="1.0" encoding="UTF-8" standalone="no"?>
<!DOCTYPE svg PUBLIC "-//W3C//DTD SVG 1.1//EN"
 "http://www.w3.org/Graphics/SVG/1.1/DTD/svg11.dtd">
<!-- Generated by graphviz version 2.49.1 (20211004.0028)
 -->
<!-- Title: G Pages: 1 -->
<svg width="496pt" height="620pt"
 viewBox="0.00 0.00 496.00 620.00" xmlns="http://www.w3.org/2000/svg" xmlns:xlink="http://www.w3.org/1999/xlink">
<g id="graph0" class="graph" transform="scale(1 1) rotate(0) translate(4 616)">
<title>G</title>
<polygon fill="white" stroke="transparent" points="-4,4 -4,-616 492,-616 492,4 -4,4"/>
<!-- 0 -->
<g id="node1" class="node">
<title>0</title>
<path fill="#7bccc4" stroke="black" stroke-width="0" d="M279.5,-612C279.5,-612 206.5,-612 206.5,-612 200.5,-612 194.5,-606 194.5,-600 194.5,-600 194.5,-588 194.5,-588 194.5,-582 200.5,-576 206.5,-576 206.5,-576 279.5,-576 279.5,-576 285.5,-576 291.5,-582 291.5,-588 291.5,-588 291.5,-600 291.5,-600 291.5,-606 285.5,-612 279.5,-612"/>
<text text-anchor="start" x="202.5" y="-591.3" font-family="Times,serif" font-weight="bold" font-style="italic" font-size="14.00">Normal Clone</text>
</g>
<!-- 14 -->
<g id="node2" class="node">
<title>14</title>
<path fill="#ccebc5" stroke="black" stroke-width="0" d="M96,-540C96,-540 12,-540 12,-540 6,-540 0,-534 0,-528 0,-528 0,-516 0,-516 0,-510 6,-504 12,-504 12,-504 96,-504 96,-504 102,-504 108,-510 108,-516 108,-516 108,-528 108,-528 108,-534 102,-540 96,-540"/>
<text text-anchor="start" x="26.5" y="-525.8" font-family="Times,serif" font-weight="bold" font-style="italic" font-size="14.00">Clone 14:</text>
<text text-anchor="start" x="8" y="-511.8" font-family="Times,serif" font-size="14.00">chr1_115256530</text>
</g>
<!-- 0&#45;&gt;14 -->
<g id="edge1" class="edge">
<title>0&#45;&gt;14</title>
<path fill="none" stroke="black" d="M196.77,-575.88C170.47,-566.14 137.36,-553.87 109.64,-543.61"/>
<polygon fill="black" stroke="black" points="100.08,-540.07 111.02,-539.32 104.77,-541.8 109.46,-543.54 109.46,-543.54 109.46,-543.54 104.77,-541.8 107.9,-547.76 100.08,-540.07 100.08,-540.07"/>
</g>
<!-- 15 -->
<g id="node3" class="node">
<title>15</title>
<path fill="#e0f3db" stroke="black" stroke-width="0" d="M222,-540C222,-540 138,-540 138,-540 132,-540 126,-534 126,-528 126,-528 126,-516 126,-516 126,-510 132,-504 138,-504 138,-504 222,-504 222,-504 228,-504 234,-510 234,-516 234,-516 234,-528 234,-528 234,-534 228,-540 222,-540"/>
<text text-anchor="start" x="152.5" y="-525.8" font-family="Times,serif" font-weight="bold" font-style="italic" font-size="14.00">Clone 15:</text>
<text text-anchor="start" x="134" y="-511.8" font-family="Times,serif" font-size="14.00">chr1_115258747</text>
</g>
<!-- 0&#45;&gt;15 -->
<g id="edge2" class="edge">
<title>0&#45;&gt;15</title>
<path fill="none" stroke="black" d="M227.43,-575.7C219.8,-567.22 210.48,-556.86 202.12,-547.58"/>
<polygon fill="black" stroke="black" points="195.39,-540.1 205.43,-544.53 198.74,-543.82 202.08,-547.54 202.08,-547.54 202.08,-547.54 198.74,-543.82 198.74,-550.55 195.39,-540.1 195.39,-540.1"/>
</g>
<!-- 4 -->
<g id="node4" class="node">
<title>4</title>
<path fill="#a8ddb5" stroke="black" stroke-width="0" d="M348,-540C348,-540 264,-540 264,-540 258,-540 252,-534 252,-528 252,-528 252,-516 252,-516 252,-510 258,-504 264,-504 264,-504 348,-504 348,-504 354,-504 360,-510 360,-516 360,-516 360,-528 360,-528 360,-534 354,-540 348,-540"/>
<text text-anchor="start" x="281.5" y="-525.8" font-family="Times,serif" font-weight="bold" font-style="italic" font-size="14.00">Clone 4:</text>
<text text-anchor="start" x="260" y="-511.8" font-family="Times,serif" font-size="14.00">chr19_54403664</text>
</g>
<!-- 0&#45;&gt;4 -->
<g id="edge3" class="edge">
<title>0&#45;&gt;4</title>
<path fill="none" stroke="black" d="M258.57,-575.7C266.2,-567.22 275.52,-556.86 283.88,-547.58"/>
<polygon fill="black" stroke="black" points="290.61,-540.1 287.26,-550.55 287.26,-543.82 283.92,-547.54 283.92,-547.54 283.92,-547.54 287.26,-543.82 280.57,-544.53 290.61,-540.1 290.61,-540.1"/>
</g>
<!-- 1 -->
<g id="node5" class="node">
<title>1</title>
<path fill="#ccebc5" stroke="black" stroke-width="0" d="M475,-540C475,-540 391,-540 391,-540 385,-540 379,-534 379,-528 379,-528 379,-516 379,-516 379,-510 385,-504 391,-504 391,-504 475,-504 475,-504 481,-504 487,-510 487,-516 487,-516 487,-528 487,-528 487,-534 481,-540 475,-540"/>
<text text-anchor="start" x="408.5" y="-525.8" font-family="Times,serif" font-weight="bold" font-style="italic" font-size="14.00">Clone 1:</text>
<text text-anchor="start" x="387" y="-511.8" font-family="Times,serif" font-size="14.00">chr15_41072153</text>
</g>
<!-- 0&#45;&gt;1 -->
<g id="edge4" class="edge">
<title>0&#45;&gt;1</title>
<path fill="none" stroke="black" d="M289.48,-575.88C315.92,-566.14 349.2,-553.87 377.06,-543.61"/>
<polygon fill="black" stroke="black" points="386.67,-540.07 378.84,-547.75 381.98,-541.8 377.29,-543.53 377.29,-543.53 377.29,-543.53 381.98,-541.8 375.73,-539.3 386.67,-540.07 386.67,-540.07"/>
</g>
<!-- 6 -->
<g id="node8" class="node">
<title>6</title>
<path fill="#ccebc5" stroke="black" stroke-width="0" d="M348,-468C348,-468 264,-468 264,-468 258,-468 252,-462 252,-456 252,-456 252,-444 252,-444 252,-438 258,-432 264,-432 264,-432 348,-432 348,-432 354,-432 360,-438 360,-444 360,-444 360,-456 360,-456 360,-462 354,-468 348,-468"/>
<text text-anchor="start" x="281.5" y="-453.8" font-family="Times,serif" font-weight="bold" font-style="italic" font-size="14.00">Clone 6:</text>
<text text-anchor="start" x="260" y="-439.8" font-family="Times,serif" font-size="14.00">chr5_140256803</text>
</g>
<!-- 4&#45;&gt;6 -->
<g id="edge5" class="edge">
<title>4&#45;&gt;6</title>
<path fill="none" stroke="black" d="M306,-503.7C306,-495.98 306,-486.71 306,-478.11"/>
<polygon fill="black" stroke="black" points="306,-468.1 310.5,-478.1 306,-473.1 306,-478.1 306,-478.1 306,-478.1 306,-473.1 301.5,-478.1 306,-468.1 306,-468.1"/>
</g>
<!-- 2 -->
<g id="node6" class="node">
<title>2</title>
<path fill="#e0f3db" stroke="black" stroke-width="0" d="M471.5,-468C471.5,-468 394.5,-468 394.5,-468 388.5,-468 382.5,-462 382.5,-456 382.5,-456 382.5,-444 382.5,-444 382.5,-438 388.5,-432 394.5,-432 394.5,-432 471.5,-432 471.5,-432 477.5,-432 483.5,-438 483.5,-444 483.5,-444 483.5,-456 483.5,-456 483.5,-462 477.5,-468 471.5,-468"/>
<text text-anchor="start" x="408.5" y="-453.8" font-family="Times,serif" font-weight="bold" font-style="italic" font-size="14.00">Clone 2:</text>
<text text-anchor="start" x="390.5" y="-439.8" font-family="Times,serif" font-size="14.00">chr6_72960124</text>
</g>
<!-- 1&#45;&gt;2 -->
<g id="edge6" class="edge">
<title>1&#45;&gt;2</title>
<path fill="none" stroke="black" d="M433,-503.7C433,-495.98 433,-486.71 433,-478.11"/>
<polygon fill="black" stroke="black" points="433,-468.1 437.5,-478.1 433,-473.1 433,-478.1 433,-478.1 433,-478.1 433,-473.1 428.5,-478.1 433,-468.1 433,-468.1"/>
</g>
<!-- 3 -->
<g id="node7" class="node">
<title>3</title>
<path fill="#ccebc5" stroke="black" stroke-width="0" d="M476,-396C476,-396 392,-396 392,-396 386,-396 380,-390 380,-384 380,-384 380,-372 380,-372 380,-366 386,-360 392,-360 392,-360 476,-360 476,-360 482,-360 488,-366 488,-372 488,-372 488,-384 488,-384 488,-390 482,-396 476,-396"/>
<text text-anchor="start" x="409.5" y="-381.8" font-family="Times,serif" font-weight="bold" font-style="italic" font-size="14.00">Clone 3:</text>
<text text-anchor="start" x="388" y="-367.8" font-family="Times,serif" font-size="14.00">chr1_120337202</text>
</g>
<!-- 2&#45;&gt;3 -->
<g id="edge7" class="edge">
<title>2&#45;&gt;3</title>
<path fill="none" stroke="black" d="M433.25,-431.7C433.36,-423.98 433.49,-414.71 433.61,-406.11"/>
<polygon fill="black" stroke="black" points="433.76,-396.1 438.11,-406.17 433.68,-401.1 433.61,-406.1 433.61,-406.1 433.61,-406.1 433.68,-401.1 429.11,-406.04 433.76,-396.1 433.76,-396.1"/>
</g>
<!-- 16 -->
<g id="node10" class="node">
<title>16</title>
<path fill="#e0f3db" stroke="black" stroke-width="0" d="M476,-324C476,-324 392,-324 392,-324 386,-324 380,-318 380,-312 380,-312 380,-300 380,-300 380,-294 386,-288 392,-288 392,-288 476,-288 476,-288 482,-288 488,-294 488,-300 488,-300 488,-312 488,-312 488,-318 482,-324 476,-324"/>
<text text-anchor="start" x="406.5" y="-309.8" font-family="Times,serif" font-weight="bold" font-style="italic" font-size="14.00">Clone 16:</text>
<text text-anchor="start" x="388" y="-295.8" font-family="Times,serif" font-size="14.00">chr8_117870645</text>
</g>
<!-- 3&#45;&gt;16 -->
<g id="edge8" class="edge">
<title>3&#45;&gt;16</title>
<path fill="none" stroke="black" d="M434,-359.7C434,-351.98 434,-342.71 434,-334.11"/>
<polygon fill="black" stroke="black" points="434,-324.1 438.5,-334.1 434,-329.1 434,-334.1 434,-334.1 434,-334.1 434,-329.1 429.5,-334.1 434,-324.1 434,-324.1"/>
</g>
<!-- 11 -->
<g id="node9" class="node">
<title>11</title>
<path fill="#e0f3db" stroke="black" stroke-width="0" d="M349.5,-396C349.5,-396 258.5,-396 258.5,-396 252.5,-396 246.5,-390 246.5,-384 246.5,-384 246.5,-372 246.5,-372 246.5,-366 252.5,-360 258.5,-360 258.5,-360 349.5,-360 349.5,-360 355.5,-360 361.5,-366 361.5,-372 361.5,-372 361.5,-384 361.5,-384 361.5,-390 355.5,-396 349.5,-396"/>
<text text-anchor="start" x="276.5" y="-381.8" font-family="Times,serif" font-weight="bold" font-style="italic" font-size="14.00">Clone 11:</text>
<text text-anchor="start" x="254.5" y="-367.8" font-family="Times,serif" font-size="14.00">chr12_120583105</text>
</g>
<!-- 6&#45;&gt;11 -->
<g id="edge9" class="edge">
<title>6&#45;&gt;11</title>
<path fill="none" stroke="black" d="M305.51,-431.7C305.29,-423.98 305.02,-414.71 304.77,-406.11"/>
<polygon fill="black" stroke="black" points="304.49,-396.1 309.27,-405.97 304.63,-401.1 304.77,-406.1 304.77,-406.1 304.77,-406.1 304.63,-401.1 300.28,-406.23 304.49,-396.1 304.49,-396.1"/>
</g>
<!-- 5 -->
<g id="node11" class="node">
<title>5</title>
<path fill="#ccebc5" stroke="black" stroke-width="0" d="M346,-324C346,-324 262,-324 262,-324 256,-324 250,-318 250,-312 250,-312 250,-300 250,-300 250,-294 256,-288 262,-288 262,-288 346,-288 346,-288 352,-288 358,-294 358,-300 358,-300 358,-312 358,-312 358,-318 352,-324 346,-324"/>
<text text-anchor="start" x="279.5" y="-309.8" font-family="Times,serif" font-weight="bold" font-style="italic" font-size="14.00">Clone 5:</text>
<text text-anchor="start" x="258" y="-295.8" font-family="Times,serif" font-size="14.00">chr19_39398090</text>
</g>
<!-- 11&#45;&gt;5 -->
<g id="edge10" class="edge">
<title>11&#45;&gt;5</title>
<path fill="none" stroke="black" d="M304,-359.7C304,-351.98 304,-342.71 304,-334.11"/>
<polygon fill="black" stroke="black" points="304,-324.1 308.5,-334.1 304,-329.1 304,-334.1 304,-334.1 304,-334.1 304,-329.1 299.5,-334.1 304,-324.1 304,-324.1"/>
</g>
<!-- 9 -->
<g id="node15" class="node">
<title>9</title>
<path fill="#ccebc5" stroke="black" stroke-width="0" d="M476,-252C476,-252 392,-252 392,-252 386,-252 380,-246 380,-240 380,-240 380,-228 380,-228 380,-222 386,-216 392,-216 392,-216 476,-216 476,-216 482,-216 488,-222 488,-228 488,-228 488,-240 488,-240 488,-246 482,-252 476,-252"/>
<text text-anchor="start" x="409.5" y="-237.8" font-family="Times,serif" font-weight="bold" font-style="italic" font-size="14.00">Clone 9:</text>
<text text-anchor="start" x="388" y="-223.8" font-family="Times,serif" font-size="14.00">chr11_55371083</text>
</g>
<!-- 16&#45;&gt;9 -->
<g id="edge11" class="edge">
<title>16&#45;&gt;9</title>
<path fill="none" stroke="black" d="M434,-287.7C434,-279.98 434,-270.71 434,-262.11"/>
<polygon fill="black" stroke="black" points="434,-252.1 438.5,-262.1 434,-257.1 434,-262.1 434,-262.1 434,-262.1 434,-257.1 429.5,-262.1 434,-252.1 434,-252.1"/>
</g>
<!-- 7 -->
<g id="node12" class="node">
<title>7</title>
<path fill="#ccebc5" stroke="black" stroke-width="0" d="M346,-252C346,-252 262,-252 262,-252 256,-252 250,-246 250,-240 250,-240 250,-228 250,-228 250,-222 256,-216 262,-216 262,-216 346,-216 346,-216 352,-216 358,-222 358,-228 358,-228 358,-240 358,-240 358,-246 352,-252 346,-252"/>
<text text-anchor="start" x="279.5" y="-237.8" font-family="Times,serif" font-weight="bold" font-style="italic" font-size="14.00">Clone 7:</text>
<text text-anchor="start" x="258" y="-223.8" font-family="Times,serif" font-size="14.00">chr1_247587156</text>
</g>
<!-- 5&#45;&gt;7 -->
<g id="edge12" class="edge">
<title>5&#45;&gt;7</title>
<path fill="none" stroke="black" d="M304,-287.7C304,-279.98 304,-270.71 304,-262.11"/>
<polygon fill="black" stroke="black" points="304,-252.1 308.5,-262.1 304,-257.1 304,-262.1 304,-262.1 304,-262.1 304,-257.1 299.5,-262.1 304,-252.1 304,-252.1"/>
</g>
<!-- 8 -->
<g id="node13" class="node">
<title>8</title>
<path fill="#ccebc5" stroke="black" stroke-width="0" d="M346,-180C346,-180 262,-180 262,-180 256,-180 250,-174 250,-168 250,-168 250,-156 250,-156 250,-150 256,-144 262,-144 262,-144 346,-144 346,-144 352,-144 358,-150 358,-156 358,-156 358,-168 358,-168 358,-174 352,-180 346,-180"/>
<text text-anchor="start" x="279.5" y="-165.8" font-family="Times,serif" font-weight="bold" font-style="italic" font-size="14.00">Clone 8:</text>
<text text-anchor="start" x="258" y="-151.8" font-family="Times,serif" font-size="14.00">chr12_49888575</text>
</g>
<!-- 7&#45;&gt;8 -->
<g id="edge13" class="edge">
<title>7&#45;&gt;8</title>
<path fill="none" stroke="black" d="M304,-215.7C304,-207.98 304,-198.71 304,-190.11"/>
<polygon fill="black" stroke="black" points="304,-180.1 308.5,-190.1 304,-185.1 304,-190.1 304,-190.1 304,-190.1 304,-185.1 299.5,-190.1 304,-180.1 304,-180.1"/>
</g>
<!-- 10 -->
<g id="node14" class="node">
<title>10</title>
<path fill="#a8ddb5" stroke="black" stroke-width="0" d="M342.5,-108C342.5,-108 265.5,-108 265.5,-108 259.5,-108 253.5,-102 253.5,-96 253.5,-96 253.5,-84 253.5,-84 253.5,-78 259.5,-72 265.5,-72 265.5,-72 342.5,-72 342.5,-72 348.5,-72 354.5,-78 354.5,-84 354.5,-84 354.5,-96 354.5,-96 354.5,-102 348.5,-108 342.5,-108"/>
<text text-anchor="start" x="276.5" y="-93.8" font-family="Times,serif" font-weight="bold" font-style="italic" font-size="14.00">Clone 10:</text>
<text text-anchor="start" x="261.5" y="-79.8" font-family="Times,serif" font-size="14.00">chr7_11075310</text>
</g>
<!-- 8&#45;&gt;10 -->
<g id="edge14" class="edge">
<title>8&#45;&gt;10</title>
<path fill="none" stroke="black" d="M304,-143.7C304,-135.98 304,-126.71 304,-118.11"/>
<polygon fill="black" stroke="black" points="304,-108.1 308.5,-118.1 304,-113.1 304,-118.1 304,-118.1 304,-118.1 304,-113.1 299.5,-118.1 304,-108.1 304,-108.1"/>
</g>
<!-- 12 -->
<g id="node16" class="node">
<title>12</title>
<path fill="#a8ddb5" stroke="black" stroke-width="0" d="M346,-36C346,-36 262,-36 262,-36 256,-36 250,-30 250,-24 250,-24 250,-12 250,-12 250,-6 256,0 262,0 262,0 346,0 346,0 352,0 358,-6 358,-12 358,-12 358,-24 358,-24 358,-30 352,-36 346,-36"/>
<text text-anchor="start" x="276.5" y="-21.8" font-family="Times,serif" font-weight="bold" font-style="italic" font-size="14.00">Clone 12:</text>
<text text-anchor="start" x="258" y="-7.8" font-family="Times,serif" font-size="14.00">chr4_149035254</text>
</g>
<!-- 10&#45;&gt;12 -->
<g id="edge15" class="edge">
<title>10&#45;&gt;12</title>
<path fill="none" stroke="black" d="M304,-71.7C304,-63.98 304,-54.71 304,-46.11"/>
<polygon fill="black" stroke="black" points="304,-36.1 308.5,-46.1 304,-41.1 304,-46.1 304,-46.1 304,-46.1 304,-41.1 299.5,-46.1 304,-36.1 304,-36.1"/>
</g>
<!-- 13 -->
<g id="node17" class="node">
<title>13</title>
<path fill="#e0f3db" stroke="black" stroke-width="0" d="M476,-180C476,-180 392,-180 392,-180 386,-180 380,-174 380,-168 380,-168 380,-156 380,-156 380,-150 386,-144 392,-144 392,-144 476,-144 476,-144 482,-144 488,-150 488,-156 488,-156 488,-168 488,-168 488,-174 482,-180 476,-180"/>
<text text-anchor="start" x="406.5" y="-165.8" font-family="Times,serif" font-weight="bold" font-style="italic" font-size="14.00">Clone 13:</text>
<text text-anchor="start" x="388" y="-151.8" font-family="Times,serif" font-size="14.00">chr9_109686536</text>
</g>
<!-- 9&#45;&gt;13 -->
<g id="edge16" class="edge">
<title>9&#45;&gt;13</title>
<path fill="none" stroke="black" d="M434,-215.7C434,-207.98 434,-198.71 434,-190.11"/>
<polygon fill="black" stroke="black" points="434,-180.1 438.5,-190.1 434,-185.1 434,-190.1 434,-190.1 434,-190.1 434,-185.1 429.5,-190.1 434,-180.1 434,-180.1"/>
</g>
</g>
</svg>
