<?xml version="1.0" encoding="UTF-8" standalone="no"?>
<!DOCTYPE svg PUBLIC "-//W3C//DTD SVG 1.1//EN"
 "http://www.w3.org/Graphics/SVG/1.1/DTD/svg11.dtd">
<!-- Generated by graphviz version 2.49.1 (20211004.0028)
 -->
<!-- Title: G Pages: 1 -->
<svg width="256pt" height="874pt"
 viewBox="0.00 0.00 256.00 874.00" xmlns="http://www.w3.org/2000/svg" xmlns:xlink="http://www.w3.org/1999/xlink">
<g id="graph0" class="graph" transform="scale(1 1) rotate(0) translate(4 870)">
<title>G</title>
<polygon fill="white" stroke="transparent" points="-4,4 -4,-870 252,-870 252,4 -4,4"/>
<!-- 0 -->
<g id="node1" class="node">
<title>0</title>
<path fill="#7bccc4" stroke="black" stroke-width="0" d="M160,-866C160,-866 87,-866 87,-866 81,-866 75,-860 75,-854 75,-854 75,-842 75,-842 75,-836 81,-830 87,-830 87,-830 160,-830 160,-830 166,-830 172,-836 172,-842 172,-842 172,-854 172,-854 172,-860 166,-866 160,-866"/>
<text text-anchor="start" x="83" y="-845.3" font-family="Times,serif" font-weight="bold" font-style="italic" font-size="14.00">Normal Clone</text>
</g>
<!-- 50 -->
<g id="node2" class="node">
<title>50</title>
<path fill="#ccebc5" stroke="black" stroke-width="0" d="M167,-794C167,-794 80,-794 80,-794 74,-794 68,-788 68,-782 68,-782 68,-700 68,-700 68,-694 74,-688 80,-688 80,-688 167,-688 167,-688 173,-688 179,-694 179,-700 179,-700 179,-782 179,-782 179,-788 173,-794 167,-794"/>
<text text-anchor="start" x="96" y="-779.8" font-family="Times,serif" font-weight="bold" font-style="italic" font-size="14.00">Clone 50:</text>
<text text-anchor="start" x="76" y="-765.8" font-family="Times,serif" font-size="14.00">chrX_140786540</text>
<text text-anchor="start" x="79.5" y="-751.8" font-family="Times,serif" font-size="14.00">chrX_21674307</text>
<text text-anchor="start" x="76" y="-737.8" font-family="Times,serif" font-size="14.00">chrX_103296195</text>
<text text-anchor="start" x="76" y="-723.8" font-family="Times,serif" font-size="14.00">chrX_115573955</text>
<text text-anchor="start" x="76" y="-709.8" font-family="Times,serif" font-size="14.00">chrX_142717442</text>
<text text-anchor="start" x="76" y="-695.8" font-family="Times,serif" font-size="14.00">chrX_123554275</text>
</g>
<!-- 0&#45;&gt;50 -->
<g id="edge1" class="edge">
<title>0&#45;&gt;50</title>
<path fill="none" stroke="black" d="M123.5,-829.66C123.5,-822.48 123.5,-813.66 123.5,-804.42"/>
<polygon fill="black" stroke="black" points="123.5,-794.29 128,-804.29 123.5,-799.29 123.5,-804.29 123.5,-804.29 123.5,-804.29 123.5,-799.29 119,-804.29 123.5,-794.29 123.5,-794.29"/>
</g>
<!-- 70 -->
<g id="node3" class="node">
<title>70</title>
<path fill="#e0f3db" stroke="black" stroke-width="0" d="M103,-652C103,-652 12,-652 12,-652 6,-652 0,-646 0,-640 0,-640 0,-12 0,-12 0,-6 6,0 12,0 12,0 103,0 103,0 109,0 115,-6 115,-12 115,-12 115,-640 115,-640 115,-646 109,-652 103,-652"/>
<text text-anchor="start" x="30" y="-637.8" font-family="Times,serif" font-weight="bold" font-style="italic" font-size="14.00">Clone 70:</text>
<text text-anchor="start" x="8" y="-623.8" font-family="Times,serif" font-size="14.00">chr11_130781633</text>
<text text-anchor="start" x="11.5" y="-609.8" font-family="Times,serif" font-size="14.00">chr10_55912914</text>
<text text-anchor="start" x="11.5" y="-595.8" font-family="Times,serif" font-size="14.00">chr15_86702217</text>
<text text-anchor="start" x="11.5" y="-581.8" font-family="Times,serif" font-size="14.00">chr2_197171943</text>
<text text-anchor="start" x="11.5" y="-567.8" font-family="Times,serif" font-size="14.00">chr5_150925586</text>
<text text-anchor="start" x="11.5" y="-553.8" font-family="Times,serif" font-size="14.00">chr12_83289809</text>
<text text-anchor="start" x="11.5" y="-539.8" font-family="Times,serif" font-size="14.00">chr11_31327897</text>
<text text-anchor="start" x="11.5" y="-525.8" font-family="Times,serif" font-size="14.00">chr9_130575902</text>
<text text-anchor="start" x="11.5" y="-511.8" font-family="Times,serif" font-size="14.00">chr19_57641945</text>
<text text-anchor="start" x="11.5" y="-497.8" font-family="Times,serif" font-size="14.00">chr9_135465483</text>
<text text-anchor="start" x="11.5" y="-483.8" font-family="Times,serif" font-size="14.00">chr2_168107259</text>
<text text-anchor="start" x="11.5" y="-469.8" font-family="Times,serif" font-size="14.00">chr2_141459714</text>
<text text-anchor="start" x="15" y="-455.8" font-family="Times,serif" font-size="14.00">chr12_3103944</text>
<text text-anchor="start" x="11.5" y="-441.8" font-family="Times,serif" font-size="14.00">chr1_223441998</text>
<text text-anchor="start" x="11.5" y="-427.8" font-family="Times,serif" font-size="14.00">chr12_21693481</text>
<text text-anchor="start" x="11.5" y="-413.8" font-family="Times,serif" font-size="14.00">chr5_150945278</text>
<text text-anchor="start" x="11.5" y="-399.8" font-family="Times,serif" font-size="14.00">chr1_186342527</text>
<text text-anchor="start" x="11.5" y="-385.8" font-family="Times,serif" font-size="14.00">chr15_99486144</text>
<text text-anchor="start" x="11.5" y="-371.8" font-family="Times,serif" font-size="14.00">chr9_132982039</text>
<text text-anchor="start" x="11.5" y="-357.8" font-family="Times,serif" font-size="14.00">chr2_178407982</text>
<text text-anchor="start" x="11.5" y="-343.8" font-family="Times,serif" font-size="14.00">chr14_25101215</text>
<text text-anchor="start" x="11.5" y="-329.8" font-family="Times,serif" font-size="14.00">chr7_140218298</text>
<text text-anchor="start" x="11.5" y="-315.8" font-family="Times,serif" font-size="14.00">chr5_135513047</text>
<text text-anchor="start" x="11.5" y="-301.8" font-family="Times,serif" font-size="14.00">chr14_71205049</text>
<text text-anchor="start" x="11.5" y="-287.8" font-family="Times,serif" font-size="14.00">chr14_63447749</text>
<text text-anchor="start" x="15" y="-273.8" font-family="Times,serif" font-size="14.00">chr2_98999900</text>
<text text-anchor="start" x="11.5" y="-259.8" font-family="Times,serif" font-size="14.00">chr5_153054171</text>
<text text-anchor="start" x="11.5" y="-245.8" font-family="Times,serif" font-size="14.00">chr19_34833074</text>
<text text-anchor="start" x="11.5" y="-231.8" font-family="Times,serif" font-size="14.00">chr18_23873495</text>
<text text-anchor="start" x="15" y="-217.8" font-family="Times,serif" font-size="14.00">chr3_64501786</text>
<text text-anchor="start" x="15" y="-203.8" font-family="Times,serif" font-size="14.00">chr1_34128698</text>
<text text-anchor="start" x="11.5" y="-189.8" font-family="Times,serif" font-size="14.00">chr5_178986772</text>
<text text-anchor="start" x="15" y="-175.8" font-family="Times,serif" font-size="14.00">chr3_51737870</text>
<text text-anchor="start" x="11.5" y="-161.8" font-family="Times,serif" font-size="14.00">chr6_114182916</text>
<text text-anchor="start" x="18" y="-147.8" font-family="Times,serif" font-size="14.00">chr16_747032</text>
<text text-anchor="start" x="11.5" y="-133.8" font-family="Times,serif" font-size="14.00">chr9_119802237</text>
<text text-anchor="start" x="11.5" y="-119.8" font-family="Times,serif" font-size="14.00">chr2_183642336</text>
<text text-anchor="start" x="11.5" y="-105.8" font-family="Times,serif" font-size="14.00">chr2_139656063</text>
<text text-anchor="start" x="11.5" y="-91.8" font-family="Times,serif" font-size="14.00">chr13_44971649</text>
<text text-anchor="start" x="15" y="-77.8" font-family="Times,serif" font-size="14.00">chr4_74736547</text>
<text text-anchor="start" x="15" y="-63.8" font-family="Times,serif" font-size="14.00">chr6_64292496</text>
<text text-anchor="start" x="11.5" y="-49.8" font-family="Times,serif" font-size="14.00">chr10_71331961</text>
<text text-anchor="start" x="11.5" y="-35.8" font-family="Times,serif" font-size="14.00">chr8_122625606</text>
<text text-anchor="start" x="8" y="-21.8" font-family="Times,serif" font-size="14.00">chr11_120811098</text>
<text text-anchor="start" x="15" y="-7.8" font-family="Times,serif" font-size="14.00">chr5_82834097</text>
</g>
<!-- 50&#45;&gt;70 -->
<g id="edge2" class="edge">
<title>50&#45;&gt;70</title>
<path fill="none" stroke="black" d="M115.14,-687.69C113.89,-679.88 112.54,-671.39 111.09,-662.34"/>
<polygon fill="black" stroke="black" points="109.49,-652.32 115.51,-661.49 110.28,-657.26 111.07,-662.2 111.07,-662.2 111.07,-662.2 110.28,-657.26 106.62,-662.91 109.49,-652.32 109.49,-652.32"/>
</g>
<!-- 71 -->
<g id="node4" class="node">
<title>71</title>
<path fill="#ccebc5" stroke="black" stroke-width="0" d="M236,-477C236,-477 145,-477 145,-477 139,-477 133,-471 133,-465 133,-465 133,-187 133,-187 133,-181 139,-175 145,-175 145,-175 236,-175 236,-175 242,-175 248,-181 248,-187 248,-187 248,-465 248,-465 248,-471 242,-477 236,-477"/>
<text text-anchor="start" x="163" y="-462.8" font-family="Times,serif" font-weight="bold" font-style="italic" font-size="14.00">Clone 71:</text>
<text text-anchor="start" x="144.5" y="-448.8" font-family="Times,serif" font-size="14.00">chr18_23873466</text>
<text text-anchor="start" x="144.5" y="-434.8" font-family="Times,serif" font-size="14.00">chr20_43382906</text>
<text text-anchor="start" x="151" y="-420.8" font-family="Times,serif" font-size="14.00">chr7_6201566</text>
<text text-anchor="start" x="144.5" y="-406.8" font-family="Times,serif" font-size="14.00">chr12_48387269</text>
<text text-anchor="start" x="144.5" y="-392.8" font-family="Times,serif" font-size="14.00">chr19_11512925</text>
<text text-anchor="start" x="144.5" y="-378.8" font-family="Times,serif" font-size="14.00">chr5_126674907</text>
<text text-anchor="start" x="144.5" y="-364.8" font-family="Times,serif" font-size="14.00">chr5_180274623</text>
<text text-anchor="start" x="148" y="-350.8" font-family="Times,serif" font-size="14.00">chr9_14746440</text>
<text text-anchor="start" x="148" y="-336.8" font-family="Times,serif" font-size="14.00">chr6_52364431</text>
<text text-anchor="start" x="144.5" y="-322.8" font-family="Times,serif" font-size="14.00">chr12_16056136</text>
<text text-anchor="start" x="144.5" y="-308.8" font-family="Times,serif" font-size="14.00">chr14_72196795</text>
<text text-anchor="start" x="148" y="-294.8" font-family="Times,serif" font-size="14.00">chr7_99949818</text>
<text text-anchor="start" x="141" y="-280.8" font-family="Times,serif" font-size="14.00">chr11_100179143</text>
<text text-anchor="start" x="144.5" y="-266.8" font-family="Times,serif" font-size="14.00">chr3_124485174</text>
<text text-anchor="start" x="144.5" y="-252.8" font-family="Times,serif" font-size="14.00">chr19_11545917</text>
<text text-anchor="start" x="144.5" y="-238.8" font-family="Times,serif" font-size="14.00">chr2_112621377</text>
<text text-anchor="start" x="144.5" y="-224.8" font-family="Times,serif" font-size="14.00">chr11_59596956</text>
<text text-anchor="start" x="144.5" y="-210.8" font-family="Times,serif" font-size="14.00">chr12_51381045</text>
<text text-anchor="start" x="144.5" y="-196.8" font-family="Times,serif" font-size="14.00">chr1_103487290</text>
<text text-anchor="start" x="144.5" y="-182.8" font-family="Times,serif" font-size="14.00">chr17_48276772</text>
</g>
<!-- 50&#45;&gt;71 -->
<g id="edge3" class="edge">
<title>50&#45;&gt;71</title>
<path fill="none" stroke="black" d="M131.99,-687.69C140.16,-637.32 152.94,-558.5 164.48,-487.38"/>
<polygon fill="black" stroke="black" points="166.1,-477.39 168.94,-487.99 165.3,-482.33 164.5,-487.27 164.5,-487.27 164.5,-487.27 165.3,-482.33 160.06,-486.54 166.1,-477.39 166.1,-477.39"/>
</g>
</g>
</svg>
