<?xml version="1.0" encoding="UTF-8" standalone="no"?>
<!DOCTYPE svg PUBLIC "-//W3C//DTD SVG 1.1//EN"
 "http://www.w3.org/Graphics/SVG/1.1/DTD/svg11.dtd">
<!-- Generated by graphviz version 2.49.1 (20211004.0028)
 -->
<!-- Title: G Pages: 1 -->
<svg width="646pt" height="488pt"
 viewBox="0.00 0.00 646.00 488.00" xmlns="http://www.w3.org/2000/svg" xmlns:xlink="http://www.w3.org/1999/xlink">
<g id="graph0" class="graph" transform="scale(1 1) rotate(0) translate(4 484)">
<title>G</title>
<polygon fill="white" stroke="transparent" points="-4,4 -4,-484 642,-484 642,4 -4,4"/>
<!-- 0 -->
<g id="node1" class="node">
<title>0</title>
<path fill="#7bccc4" stroke="black" stroke-width="0" d="M388,-480C388,-480 315,-480 315,-480 309,-480 303,-474 303,-468 303,-468 303,-456 303,-456 303,-450 309,-444 315,-444 315,-444 388,-444 388,-444 394,-444 400,-450 400,-456 400,-456 400,-468 400,-468 400,-474 394,-480 388,-480"/>
<text text-anchor="start" x="311" y="-459.3" font-family="Times,serif" font-weight="bold" font-style="italic" font-size="14.00">Normal Clone</text>
</g>
<!-- 3 -->
<g id="node2" class="node">
<title>3</title>
<path fill="#ccebc5" stroke="black" stroke-width="0" d="M285,-394C285,-394 244,-394 244,-394 238,-394 232,-388 232,-382 232,-382 232,-370 232,-370 232,-364 238,-358 244,-358 244,-358 285,-358 285,-358 291,-358 297,-364 297,-370 297,-370 297,-382 297,-382 297,-388 291,-394 285,-394"/>
<text text-anchor="start" x="240" y="-379.8" font-family="Times,serif" font-weight="bold" font-style="italic" font-size="14.00">Clone 3:</text>
<text text-anchor="start" x="241.5" y="-365.8" font-family="Times,serif" font-size="14.00">IL17RB</text>
</g>
<!-- 0&#45;&gt;3 -->
<g id="edge1" class="edge">
<title>0&#45;&gt;3</title>
<path fill="none" stroke="black" d="M333.47,-443.6C320.79,-431.35 303.65,-414.8 289.63,-401.26"/>
<polygon fill="black" stroke="black" points="282.21,-394.1 292.53,-397.8 285.8,-397.57 289.4,-401.04 289.4,-401.04 289.4,-401.04 285.8,-397.57 286.27,-404.28 282.21,-394.1 282.21,-394.1"/>
</g>
<!-- 5 -->
<g id="node5" class="node">
<title>5</title>
<path fill="#ccebc5" stroke="black" stroke-width="0" d="M464,-408C464,-408 415,-408 415,-408 409,-408 403,-402 403,-396 403,-396 403,-356 403,-356 403,-350 409,-344 415,-344 415,-344 464,-344 464,-344 470,-344 476,-350 476,-356 476,-356 476,-396 476,-396 476,-402 470,-408 464,-408"/>
<text text-anchor="start" x="415" y="-393.8" font-family="Times,serif" font-weight="bold" font-style="italic" font-size="14.00">Clone 5:</text>
<text text-anchor="start" x="412" y="-379.8" font-family="Times,serif" font-size="14.00">FBXW11</text>
<text text-anchor="start" x="421" y="-365.8" font-family="Times,serif" font-size="14.00">RBSN</text>
<text text-anchor="start" x="411" y="-351.8" font-family="Times,serif" font-size="14.00">TMEM40</text>
</g>
<!-- 0&#45;&gt;5 -->
<g id="edge2" class="edge">
<title>0&#45;&gt;5</title>
<path fill="none" stroke="black" d="M369.73,-443.6C378.32,-435.4 388.93,-425.27 399.26,-415.41"/>
<polygon fill="black" stroke="black" points="406.7,-408.3 402.58,-418.46 403.09,-411.76 399.47,-415.21 399.47,-415.21 399.47,-415.21 403.09,-411.76 396.36,-411.95 406.7,-408.3 406.7,-408.3"/>
</g>
<!-- 4 -->
<g id="node3" class="node">
<title>4</title>
<path fill="#e0f3db" stroke="black" stroke-width="0" d="M198.5,-308C198.5,-308 144.5,-308 144.5,-308 138.5,-308 132.5,-302 132.5,-296 132.5,-296 132.5,-270 132.5,-270 132.5,-264 138.5,-258 144.5,-258 144.5,-258 198.5,-258 198.5,-258 204.5,-258 210.5,-264 210.5,-270 210.5,-270 210.5,-296 210.5,-296 210.5,-302 204.5,-308 198.5,-308"/>
<text text-anchor="start" x="147" y="-293.8" font-family="Times,serif" font-weight="bold" font-style="italic" font-size="14.00">Clone 4:</text>
<text text-anchor="start" x="140.5" y="-279.8" font-family="Times,serif" font-size="14.00">PLEKHA6</text>
<text text-anchor="start" x="151.5" y="-265.8" font-family="Times,serif" font-size="14.00">APPL1</text>
</g>
<!-- 3&#45;&gt;4 -->
<g id="edge4" class="edge">
<title>3&#45;&gt;4</title>
<path fill="none" stroke="black" d="M247.01,-357.88C234.82,-345.96 218.21,-329.7 203.67,-315.47"/>
<polygon fill="black" stroke="black" points="196.28,-308.25 206.58,-312.03 199.86,-311.75 203.43,-315.25 203.43,-315.25 203.43,-315.25 199.86,-311.75 200.29,-318.46 196.28,-308.25 196.28,-308.25"/>
</g>
<!-- 12 -->
<g id="node18" class="node">
<title>12</title>
<path fill="#ccebc5" stroke="black" stroke-width="0" d="M288,-308C288,-308 241,-308 241,-308 235,-308 229,-302 229,-296 229,-296 229,-270 229,-270 229,-264 235,-258 241,-258 241,-258 288,-258 288,-258 294,-258 300,-264 300,-270 300,-270 300,-296 300,-296 300,-302 294,-308 288,-308"/>
<text text-anchor="start" x="237" y="-293.8" font-family="Times,serif" font-weight="bold" font-style="italic" font-size="14.00">Clone 12:</text>
<text text-anchor="start" x="241.5" y="-279.8" font-family="Times,serif" font-size="14.00">ZNF717</text>
<text text-anchor="start" x="241.5" y="-265.8" font-family="Times,serif" font-size="14.00">ABHD5</text>
</g>
<!-- 3&#45;&gt;12 -->
<g id="edge3" class="edge">
<title>3&#45;&gt;12</title>
<path fill="none" stroke="black" d="M264.5,-357.88C264.5,-346.83 264.5,-332.06 264.5,-318.64"/>
<polygon fill="black" stroke="black" points="264.5,-308.25 269,-318.25 264.5,-313.25 264.5,-318.25 264.5,-318.25 264.5,-318.25 264.5,-313.25 260,-318.25 264.5,-308.25 264.5,-308.25"/>
</g>
<!-- 24 -->
<g id="node4" class="node">
<title>24</title>
<path fill="#e0f3db" stroke="black" stroke-width="0" d="M148,-208C148,-208 101,-208 101,-208 95,-208 89,-202 89,-196 89,-196 89,-184 89,-184 89,-178 95,-172 101,-172 101,-172 148,-172 148,-172 154,-172 160,-178 160,-184 160,-184 160,-196 160,-196 160,-202 154,-208 148,-208"/>
<text text-anchor="start" x="97" y="-193.8" font-family="Times,serif" font-weight="bold" font-style="italic" font-size="14.00">Clone 24:</text>
<text text-anchor="start" x="104" y="-179.8" font-family="Times,serif" font-size="14.00">SNX18</text>
</g>
<!-- 4&#45;&gt;24 -->
<g id="edge5" class="edge">
<title>4&#45;&gt;24</title>
<path fill="none" stroke="black" d="M158.9,-257.61C152.49,-245.2 144.68,-230.08 138.13,-217.39"/>
<polygon fill="black" stroke="black" points="133.41,-208.24 141.99,-215.06 135.7,-212.69 137.99,-217.13 137.99,-217.13 137.99,-217.13 135.7,-212.69 134,-219.19 133.41,-208.24 133.41,-208.24"/>
</g>
<!-- 20 -->
<g id="node9" class="node">
<title>20</title>
<path fill="#e0f3db" stroke="black" stroke-width="0" d="M291.5,-222C291.5,-222 239.5,-222 239.5,-222 233.5,-222 227.5,-216 227.5,-210 227.5,-210 227.5,-170 227.5,-170 227.5,-164 233.5,-158 239.5,-158 239.5,-158 291.5,-158 291.5,-158 297.5,-158 303.5,-164 303.5,-170 303.5,-170 303.5,-210 303.5,-210 303.5,-216 297.5,-222 291.5,-222"/>
<text text-anchor="start" x="238" y="-207.8" font-family="Times,serif" font-weight="bold" font-style="italic" font-size="14.00">Clone 20:</text>
<text text-anchor="start" x="235.5" y="-193.8" font-family="Times,serif" font-size="14.00">FAM208A</text>
<text text-anchor="start" x="246" y="-179.8" font-family="Times,serif" font-size="14.00">RBM5</text>
<text text-anchor="start" x="242.5" y="-165.8" font-family="Times,serif" font-size="14.00">DOCK3</text>
</g>
<!-- 4&#45;&gt;20 -->
<g id="edge6" class="edge">
<title>4&#45;&gt;20</title>
<path fill="none" stroke="black" d="M196.69,-257.61C205.62,-248.97 215.89,-239.02 225.74,-229.49"/>
<polygon fill="black" stroke="black" points="233.15,-222.32 229.09,-232.51 229.56,-225.8 225.96,-229.27 225.96,-229.27 225.96,-229.27 229.56,-225.8 222.83,-226.04 233.15,-222.32 233.15,-222.32"/>
</g>
<!-- 11 -->
<g id="node13" class="node">
<title>11</title>
<path fill="#ccebc5" stroke="black" stroke-width="0" d="M59,-115C59,-115 12,-115 12,-115 6,-115 0,-109 0,-103 0,-103 0,-91 0,-91 0,-85 6,-79 12,-79 12,-79 59,-79 59,-79 65,-79 71,-85 71,-91 71,-91 71,-103 71,-103 71,-109 65,-115 59,-115"/>
<text text-anchor="start" x="8" y="-100.8" font-family="Times,serif" font-weight="bold" font-style="italic" font-size="14.00">Clone 11:</text>
<text text-anchor="start" x="12.5" y="-86.8" font-family="Times,serif" font-size="14.00">CEP170</text>
</g>
<!-- 24&#45;&gt;11 -->
<g id="edge7" class="edge">
<title>24&#45;&gt;11</title>
<path fill="none" stroke="black" d="M107.76,-171.88C94.09,-157.9 74.59,-137.97 59.29,-122.33"/>
<polygon fill="black" stroke="black" points="52.17,-115.04 62.37,-119.04 55.66,-118.61 59.16,-122.19 59.16,-122.19 59.16,-122.19 55.66,-118.61 55.94,-125.34 52.17,-115.04 52.17,-115.04"/>
</g>
<!-- 13 -->
<g id="node14" class="node">
<title>13</title>
<path fill="#a8ddb5" stroke="black" stroke-width="0" d="M148,-115C148,-115 101,-115 101,-115 95,-115 89,-109 89,-103 89,-103 89,-91 89,-91 89,-85 95,-79 101,-79 101,-79 148,-79 148,-79 154,-79 160,-85 160,-91 160,-91 160,-103 160,-103 160,-109 154,-115 148,-115"/>
<text text-anchor="start" x="97" y="-100.8" font-family="Times,serif" font-weight="bold" font-style="italic" font-size="14.00">Clone 13:</text>
<text text-anchor="start" x="100.5" y="-86.8" font-family="Times,serif" font-size="14.00">OR2T11</text>
</g>
<!-- 24&#45;&gt;13 -->
<g id="edge8" class="edge">
<title>24&#45;&gt;13</title>
<path fill="none" stroke="black" d="M124.5,-171.88C124.5,-158.79 124.5,-140.48 124.5,-125.36"/>
<polygon fill="black" stroke="black" points="124.5,-115.04 129,-125.04 124.5,-120.04 124.5,-125.04 124.5,-125.04 124.5,-125.04 124.5,-120.04 120,-125.04 124.5,-115.04 124.5,-115.04"/>
</g>
<!-- 10 -->
<g id="node6" class="node">
<title>10</title>
<path fill="#ccebc5" stroke="black" stroke-width="0" d="M377,-301C377,-301 330,-301 330,-301 324,-301 318,-295 318,-289 318,-289 318,-277 318,-277 318,-271 324,-265 330,-265 330,-265 377,-265 377,-265 383,-265 389,-271 389,-277 389,-277 389,-289 389,-289 389,-295 383,-301 377,-301"/>
<text text-anchor="start" x="326" y="-286.8" font-family="Times,serif" font-weight="bold" font-style="italic" font-size="14.00">Clone 10:</text>
<text text-anchor="start" x="332" y="-272.8" font-family="Times,serif" font-size="14.00">WWC1</text>
</g>
<!-- 5&#45;&gt;10 -->
<g id="edge9" class="edge">
<title>5&#45;&gt;10</title>
<path fill="none" stroke="black" d="M410.14,-343.94C399.26,-332.42 387.07,-319.52 376.8,-308.65"/>
<polygon fill="black" stroke="black" points="369.7,-301.15 379.84,-305.32 373.14,-304.78 376.57,-308.41 376.57,-308.41 376.57,-308.41 373.14,-304.78 373.3,-311.5 369.7,-301.15 369.7,-301.15"/>
</g>
<!-- 8 -->
<g id="node7" class="node">
<title>8</title>
<path fill="#ccebc5" stroke="black" stroke-width="0" d="M460,-301C460,-301 419,-301 419,-301 413,-301 407,-295 407,-289 407,-289 407,-277 407,-277 407,-271 413,-265 419,-265 419,-265 460,-265 460,-265 466,-265 472,-271 472,-277 472,-277 472,-289 472,-289 472,-295 466,-301 460,-301"/>
<text text-anchor="start" x="415" y="-286.8" font-family="Times,serif" font-weight="bold" font-style="italic" font-size="14.00">Clone 8:</text>
<text text-anchor="start" x="421" y="-272.8" font-family="Times,serif" font-size="14.00">RARS</text>
</g>
<!-- 5&#45;&gt;8 -->
<g id="edge10" class="edge">
<title>5&#45;&gt;8</title>
<path fill="none" stroke="black" d="M439.5,-343.94C439.5,-333.31 439.5,-321.52 439.5,-311.22"/>
<polygon fill="black" stroke="black" points="439.5,-301.15 444,-311.15 439.5,-306.15 439.5,-311.15 439.5,-311.15 439.5,-311.15 439.5,-306.15 435,-311.15 439.5,-301.15 439.5,-301.15"/>
</g>
<!-- 7 -->
<g id="node8" class="node">
<title>7</title>
<path fill="#a8ddb5" stroke="black" stroke-width="0" d="M543,-301C543,-301 502,-301 502,-301 496,-301 490,-295 490,-289 490,-289 490,-277 490,-277 490,-271 496,-265 502,-265 502,-265 543,-265 543,-265 549,-265 555,-271 555,-277 555,-277 555,-289 555,-289 555,-295 549,-301 543,-301"/>
<text text-anchor="start" x="498" y="-286.8" font-family="Times,serif" font-weight="bold" font-style="italic" font-size="14.00">Clone 7:</text>
<text text-anchor="start" x="498" y="-272.8" font-family="Times,serif" font-size="14.00">OR13G1</text>
</g>
<!-- 5&#45;&gt;7 -->
<g id="edge11" class="edge">
<title>5&#45;&gt;7</title>
<path fill="none" stroke="black" d="M467.83,-343.94C478.34,-332.42 490.1,-319.52 500.01,-308.65"/>
<polygon fill="black" stroke="black" points="506.86,-301.15 503.45,-311.57 503.49,-304.84 500.12,-308.53 500.12,-308.53 500.12,-308.53 503.49,-304.84 496.8,-305.5 506.86,-301.15 506.86,-301.15"/>
</g>
<!-- 9 -->
<g id="node12" class="node">
<title>9</title>
<path fill="#ccebc5" stroke="black" stroke-width="0" d="M626,-308C626,-308 585,-308 585,-308 579,-308 573,-302 573,-296 573,-296 573,-270 573,-270 573,-264 579,-258 585,-258 585,-258 626,-258 626,-258 632,-258 638,-264 638,-270 638,-270 638,-296 638,-296 638,-302 632,-308 626,-308"/>
<text text-anchor="start" x="581" y="-293.8" font-family="Times,serif" font-weight="bold" font-style="italic" font-size="14.00">Clone 9:</text>
<text text-anchor="start" x="584" y="-279.8" font-family="Times,serif" font-size="14.00">NFASC</text>
<text text-anchor="start" x="588.5" y="-265.8" font-family="Times,serif" font-size="14.00">ARF4</text>
</g>
<!-- 5&#45;&gt;9 -->
<g id="edge12" class="edge">
<title>5&#45;&gt;9</title>
<path fill="none" stroke="black" d="M476.07,-355.86C499.14,-343.68 529.73,-327.35 564.08,-308.17"/>
<polygon fill="black" stroke="black" points="572.89,-303.24 566.36,-312.05 568.53,-305.68 564.17,-308.12 564.17,-308.12 564.17,-308.12 568.53,-305.68 561.97,-304.2 572.89,-303.24 572.89,-303.24"/>
</g>
<!-- 15 -->
<g id="node10" class="node">
<title>15</title>
<path fill="#e0f3db" stroke="black" stroke-width="0" d="M246.5,-115C246.5,-115 190.5,-115 190.5,-115 184.5,-115 178.5,-109 178.5,-103 178.5,-103 178.5,-91 178.5,-91 178.5,-85 184.5,-79 190.5,-79 190.5,-79 246.5,-79 246.5,-79 252.5,-79 258.5,-85 258.5,-91 258.5,-91 258.5,-103 258.5,-103 258.5,-109 252.5,-115 246.5,-115"/>
<text text-anchor="start" x="191" y="-100.8" font-family="Times,serif" font-weight="bold" font-style="italic" font-size="14.00">Clone 15:</text>
<text text-anchor="start" x="186.5" y="-86.8" font-family="Times,serif" font-size="14.00">KIAA0825</text>
</g>
<!-- 20&#45;&gt;15 -->
<g id="edge13" class="edge">
<title>20&#45;&gt;15</title>
<path fill="none" stroke="black" d="M249.46,-157.94C243.8,-146.98 237.49,-134.77 232.06,-124.25"/>
<polygon fill="black" stroke="black" points="227.36,-115.15 235.94,-121.97 229.65,-119.59 231.94,-124.03 231.94,-124.03 231.94,-124.03 229.65,-119.59 227.95,-126.1 227.36,-115.15 227.36,-115.15"/>
</g>
<!-- 25 -->
<g id="node11" class="node">
<title>25</title>
<path fill="#a8ddb5" stroke="black" stroke-width="0" d="M336,-115C336,-115 289,-115 289,-115 283,-115 277,-109 277,-103 277,-103 277,-91 277,-91 277,-85 283,-79 289,-79 289,-79 336,-79 336,-79 342,-79 348,-85 348,-91 348,-91 348,-103 348,-103 348,-109 342,-115 336,-115"/>
<text text-anchor="start" x="285" y="-100.8" font-family="Times,serif" font-weight="bold" font-style="italic" font-size="14.00">Clone 25:</text>
<text text-anchor="start" x="285" y="-86.8" font-family="Times,serif" font-size="14.00">ADGRV1</text>
</g>
<!-- 20&#45;&gt;25 -->
<g id="edge14" class="edge">
<title>20&#45;&gt;25</title>
<path fill="none" stroke="black" d="M281.54,-157.94C287.2,-146.98 293.51,-134.77 298.94,-124.25"/>
<polygon fill="black" stroke="black" points="303.64,-115.15 303.05,-126.1 301.35,-119.59 299.06,-124.03 299.06,-124.03 299.06,-124.03 301.35,-119.59 295.06,-121.97 303.64,-115.15 303.64,-115.15"/>
</g>
<!-- 16 -->
<g id="node15" class="node">
<title>16</title>
<path fill="#a8ddb5" stroke="black" stroke-width="0" d="M439,-122C439,-122 378,-122 378,-122 372,-122 366,-116 366,-110 366,-110 366,-84 366,-84 366,-78 372,-72 378,-72 378,-72 439,-72 439,-72 445,-72 451,-78 451,-84 451,-84 451,-110 451,-110 451,-116 445,-122 439,-122"/>
<text text-anchor="start" x="381" y="-107.8" font-family="Times,serif" font-weight="bold" font-style="italic" font-size="14.00">Clone 16:</text>
<text text-anchor="start" x="374" y="-93.8" font-family="Times,serif" font-size="14.00">RASGEF1C</text>
<text text-anchor="start" x="384" y="-79.8" font-family="Times,serif" font-size="14.00">OR2AJ1</text>
</g>
<!-- 20&#45;&gt;16 -->
<g id="edge15" class="edge">
<title>20&#45;&gt;16</title>
<path fill="none" stroke="black" d="M303.82,-164.61C321.76,-153.2 343.27,-139.51 362.12,-127.51"/>
<polygon fill="black" stroke="black" points="370.57,-122.14 364.55,-131.3 366.35,-124.82 362.13,-127.51 362.13,-127.51 362.13,-127.51 366.35,-124.82 359.72,-123.71 370.57,-122.14 370.57,-122.14"/>
</g>
<!-- 18 -->
<g id="node16" class="node">
<title>18</title>
<path fill="#e0f3db" stroke="black" stroke-width="0" d="M386,-36C386,-36 339,-36 339,-36 333,-36 327,-30 327,-24 327,-24 327,-12 327,-12 327,-6 333,0 339,0 339,0 386,0 386,0 392,0 398,-6 398,-12 398,-12 398,-24 398,-24 398,-30 392,-36 386,-36"/>
<text text-anchor="start" x="335" y="-21.8" font-family="Times,serif" font-weight="bold" font-style="italic" font-size="14.00">Clone 18:</text>
<text text-anchor="start" x="345" y="-7.8" font-family="Times,serif" font-size="14.00">NEK7</text>
</g>
<!-- 16&#45;&gt;18 -->
<g id="edge16" class="edge">
<title>16&#45;&gt;18</title>
<path fill="none" stroke="black" d="M393.95,-71.64C388.92,-63.22 383.27,-53.77 378.16,-45.21"/>
<polygon fill="black" stroke="black" points="372.88,-36.38 381.87,-42.65 375.44,-40.67 378.01,-44.96 378.01,-44.96 378.01,-44.96 375.44,-40.67 374.15,-47.27 372.88,-36.38 372.88,-36.38"/>
</g>
<!-- 19 -->
<g id="node17" class="node">
<title>19</title>
<path fill="#ccebc5" stroke="black" stroke-width="0" d="M480.5,-36C480.5,-36 428.5,-36 428.5,-36 422.5,-36 416.5,-30 416.5,-24 416.5,-24 416.5,-12 416.5,-12 416.5,-6 422.5,0 428.5,0 428.5,0 480.5,0 480.5,0 486.5,0 492.5,-6 492.5,-12 492.5,-12 492.5,-24 492.5,-24 492.5,-30 486.5,-36 480.5,-36"/>
<text text-anchor="start" x="427" y="-21.8" font-family="Times,serif" font-weight="bold" font-style="italic" font-size="14.00">Clone 19:</text>
<text text-anchor="start" x="424.5" y="-7.8" font-family="Times,serif" font-size="14.00">RANBP17</text>
</g>
<!-- 16&#45;&gt;19 -->
<g id="edge17" class="edge">
<title>16&#45;&gt;19</title>
<path fill="none" stroke="black" d="M423.05,-71.64C428.08,-63.22 433.73,-53.77 438.84,-45.21"/>
<polygon fill="black" stroke="black" points="444.12,-36.38 442.85,-47.27 441.56,-40.67 438.99,-44.96 438.99,-44.96 438.99,-44.96 441.56,-40.67 435.13,-42.65 444.12,-36.38 444.12,-36.38"/>
</g>
</g>
</svg>
